  0
SECTION
  2
HEADER
  9
$ACADVER
  1
AC1018
  9
$ACADMAINTVER
 70
     0
  9
$DWGCODEPAGE
  3
ASCII
  9
$INSBASE
 10
0.0
 20
0.0
 30
0.0
  9
$EXTMIN
 10
1.000000000000000E+20
 20
1.000000000000000E+20
 30
1.000000000000000E+20
  9
$EXTMAX
 10
-1.000000000000000E+20
 20
-1.000000000000000E+20
 30
-1.000000000000000E+20
  9
$LIMMIN
 10
0.0
 20
0.0
  9
$LIMMAX
 10
12.0
 20
9.0
  9
$ORTHOMODE
 70
     0
  9
$REGENMODE
 70
     1
  9
$FILLMODE
 70
     1
  9
$QTEXTMODE
 70
     0
  9
$MIRRTEXT
 70
     1
  9
$LTSCALE
 40
1.0
  9
$ATTMODE
 70
     1
  9
$TEXTSIZE
 40
0.2
  9
$TRACEWID
 40
0.05
  9
$TEXTSTYLE
  7
Standard
  9
$CLAYER
  8
0
  9
$CELTYPE
  6
ByLayer
  9
$CECOLOR
 62
   256
  9
$CELTSCALE
 40
1.0
  9
$DISPSILH
 70
     0
  9
$DIMSCALE
 40
1.0
  9
$DIMASZ
 40
0.18
  9
$DIMEXO
 40
0.0625
  9
$DIMDLI
 40
0.38
  9
$DIMRND
 40
0.0
  9
$DIMDLE
 40
0.0
  9
$DIMEXE
 40
0.18
  9
$DIMTP
 40
0.0
  9
$DIMTM
 40
0.0
  9
$DIMTXT
 40
0.18
  9
$DIMCEN
 40
0.09
  9
$DIMTSZ
 40
0.0
  9
$DIMTOL
 70
     0
  9
$DIMLIM
 70
     0
  9
$DIMTIH
 70
     1
  9
$DIMTOH
 70
     1
  9
$DIMSE1
 70
     0
  9
$DIMSE2
 70
     0
  9
$DIMTAD
 70
     0
  9
$DIMZIN
 70
     0
  9
$DIMBLK
  1

  9
$DIMASO
 70
     1
  9
$DIMSHO
 70
     1
  9
$DIMPOST
  1

  9
$DIMAPOST
  1

  9
$DIMALT
 70
     0
  9
$DIMALTD
 70
     2
  9
$DIMALTF
 40
25.4
  9
$DIMLFAC
 40
1.0
  9
$DIMTOFL
 70
     0
  9
$DIMTVP
 40
0.0
  9
$DIMTIX
 70
     0
  9
$DIMSOXD
 70
     0
  9
$DIMSAH
 70
     0
  9
$DIMBLK1
  1

  9
$DIMBLK2
  1

  9
$DIMSTYLE
  2
Standard
  9
$DIMCLRD
 70
     0
  9
$DIMCLRE
 70
     0
  9
$DIMCLRT
 70
     0
  9
$DIMTFAC
 40
1.0
  9
$DIMGAP
 40
0.09
  9
$DIMJUST
 70
     0
  9
$DIMSD1
 70
     0
  9
$DIMSD2
 70
     0
  9
$DIMTOLJ
 70
     1
  9
$DIMTZIN
 70
     0
  9
$DIMALTZ
 70
     0
  9
$DIMALTTZ
 70
     0
  9
$DIMUPT
 70
     0
  9
$DIMDEC
 70
     4
  9
$DIMTDEC
 70
     4
  9
$DIMALTU
 70
     2
  9
$DIMALTTD
 70
     2
  9
$DIMTXSTY
  7
Standard
  9
$DIMAUNIT
 70
     0
  9
$DIMADEC
 70
     0
  9
$DIMALTRND
 40
0.0
  9
$DIMAZIN
 70
     0
  9
$DIMDSEP
 70
    46
  9
$DIMATFIT
 70
     3
  9
$DIMFRAC
 70
     0
  9
$DIMLDRBLK
  1

  9
$DIMLUNIT
 70
     2
  9
$DIMLWD
 70
    -2
  9
$DIMLWE
 70
    -2
  9
$DIMTMOVE
 70
     0
  9
$LUNITS
 70
     2
  9
$LUPREC
 70
     4
  9
$SKETCHINC
 40
0.1
  9
$FILLETRAD
 40
0.5
  9
$AUNITS
 70
     0
  9
$AUPREC
 70
     0
  9
$MENU
  1
.
  9
$ELEVATION
 40
0.0
  9
$PELEVATION
 40
0.0
  9
$THICKNESS
 40
0.0
  9
$LIMCHECK
 70
     0
  9
$CHAMFERA
 40
0.5
  9
$CHAMFERB
 40
0.5
  9
$CHAMFERC
 40
1.0
  9
$CHAMFERD
 40
0.0
  9
$SKPOLY
 70
     0
  9
$TDCREATE
 40
2456703.414351852
  9
$TDUCREATE
 40
2456703.414351852
  9
$TDUPDATE
 40
2456703.414351863
  9
$TDUUPDATE
 40
2456703.414351863
  9
$TDINDWG
 40
0.0000000116
  9
$TDUSRTIMER
 40
0.0000000116
  9
$USRTIMER
 70
     1
  9
$ANGBASE
 50
0.0
  9
$ANGDIR
 70
     0
  9
$PDMODE
 70
     0
  9
$PDSIZE
 40
0.0
  9
$PLINEWID
 40
0.0
  9
$SPLFRAME
 70
     0
  9
$SPLINETYPE
 70
     6
  9
$SPLINESEGS
 70
     8
  9
$HANDSEED
  5
9C
  9
$SURFTAB1
 70
     6
  9
$SURFTAB2
 70
     6
  9
$SURFTYPE
 70
     6
  9
$SURFU
 70
     6
  9
$SURFV
 70
     6
  9
$UCSBASE
  2

  9
$UCSNAME
  2

  9
$UCSORG
 10
0.0
 20
0.0
 30
0.0
  9
$UCSXDIR
 10
1.0
 20
0.0
 30
0.0
  9
$UCSYDIR
 10
0.0
 20
1.0
 30
0.0
  9
$UCSORTHOREF
  2

  9
$UCSORTHOVIEW
 70
     0
  9
$UCSORGTOP
 10
0.0
 20
0.0
 30
0.0
  9
$UCSORGBOTTOM
 10
0.0
 20
0.0
 30
0.0
  9
$UCSORGLEFT
 10
0.0
 20
0.0
 30
0.0
  9
$UCSORGRIGHT
 10
0.0
 20
0.0
 30
0.0
  9
$UCSORGFRONT
 10
0.0
 20
0.0
 30
0.0
  9
$UCSORGBACK
 10
0.0
 20
0.0
 30
0.0
  9
$PUCSBASE
  2

  9
$PUCSNAME
  2

  9
$PUCSORG
 10
0.0
 20
0.0
 30
0.0
  9
$PUCSXDIR
 10
1.0
 20
0.0
 30
0.0
  9
$PUCSYDIR
 10
0.0
 20
1.0
 30
0.0
  9
$PUCSORTHOREF
  2

  9
$PUCSORTHOVIEW
 70
     0
  9
$PUCSORGTOP
 10
0.0
 20
0.0
 30
0.0
  9
$PUCSORGBOTTOM
 10
0.0
 20
0.0
 30
0.0
  9
$PUCSORGLEFT
 10
0.0
 20
0.0
 30
0.0
  9
$PUCSORGRIGHT
 10
0.0
 20
0.0
 30
0.0
  9
$PUCSORGFRONT
 10
0.0
 20
0.0
 30
0.0
  9
$PUCSORGBACK
 10
0.0
 20
0.0
 30
0.0
  9
$USERI1
 70
     0
  9
$USERI2
 70
     0
  9
$USERI3
 70
     0
  9
$USERI4
 70
     0
  9
$USERI5
 70
     0
  9
$USERR1
 40
0.0
  9
$USERR2
 40
0.0
  9
$USERR3
 40
0.0
  9
$USERR4
 40
0.0
  9
$USERR5
 40
0.0
  9
$WORLDVIEW
 70
     1
  9
$SHADEDGE
 70
     3
  9
$SHADEDIF
 70
    70
  9
$TILEMODE
 70
     1
  9
$MAXACTVP
 70
    64
  9
$PINSBASE
 10
0.0
 20
0.0
 30
0.0
  9
$PLIMCHECK
 70
     0
  9
$PEXTMIN
 10
1.000000000000000E+20
 20
1.000000000000000E+20
 30
1.000000000000000E+20
  9
$PEXTMAX
 10
-1.000000000000000E+20
 20
-1.000000000000000E+20
 30
-1.000000000000000E+20
  9
$PLIMMIN
 10
0.0
 20
0.0
  9
$PLIMMAX
 10
12.0
 20
9.0
  9
$UNITMODE
 70
     0
  9
$VISRETAIN
 70
     1
  9
$PLINEGEN
 70
     0
  9
$PSLTSCALE
 70
     1
  9
$TREEDEPTH
 70
  3020
  9
$CMLSTYLE
  2
Standard
  9
$CMLJUST
 70
     0
  9
$CMLSCALE
 40
1.0
  9
$PROXYGRAPHICS
 70
     1
  9
$MEASUREMENT
 70
     0
  9
$CELWEIGHT
370
    -1
  9
$ENDCAPS
280
     0
  9
$JOINSTYLE
280
     0
  9
$LWDISPLAY
290
     1
  9
$INSUNITS
 70
     1
  9
$HYPERLINKBASE
  1

  9
$STYLESHEET
  1

  9
$XEDIT
290
     1
  9
$CEPSNTYPE
380
     0
  9
$PSTYLEMODE
290
     1
  9
$FINGERPRINTGUID
  2
{4DD15B03-0AE1-623A-802D-056E27C8291C}
  9
$VERSIONGUID
  2
{FAEB1C32-E019-11D5-929B-00C0DF256EC4}
  9
$EXTNAMES
290
     1
  9
$PSVPSCALE
 40
0.0
  9
$OLESTARTUP
290
     0
  9
$SORTENTS
280
   127
  9
$INDEXCTL
280
     0
  9
$HIDETEXT
280
     1
  9
$XCLIPFRAME
290
     0
  9
$HALOGAP
280
     0
  9
$OBSCOLOR
 70
   257
  9
$OBSLTYPE
280
     0
  9
$INTERSECTIONDISPLAY
280
     0
  9
$INTERSECTIONCOLOR
 70
   257
  9
$DIMASSOC
280
     2
  9
$PROJECTNAME
  1

  0
ENDSEC
  0
SECTION
  2
CLASSES
  0
CLASS
  1
ACDBDICTIONARYWDFLT
  2
AcDbDictionaryWithDefault
  3
ObjectDBX Classes
 90
        0
 91
        3
280
     0
281
     0
  0
CLASS
  1
VISUALSTYLE
  2
AcDbVisualStyle
  3
ObjectDBX Classes
 90
     4095
 91
        3
280
     0
281
     0
  0
ENDSEC
  0
SECTION
  2
TABLES
  0
TABLE
  2
VPORT
  5
8
330
0
100
AcDbSymbolTable
 70
     1
  0
VPORT
  5
29
330
8
100
AcDbSymbolTableRecord
100
AcDbViewportTableRecord
  2
*Active
 70
     0
 10
0.0
 20
0.0
 11
1.0
 21
1.0
 12
0.0
 22
0.0
 13
0.0
 23
0.0
 14
0.5
 24
0.5
 15
0.5
 25
0.5
 16
0.0
 26
0.0
 36
1.0
 17
298.180419921875
 27
419.560302734375
 37
0.0
 40
11.858994140625
 41
8.303935156020327
 42
50.0
 43
0.0
 44
0.0
 50
0.0
 51
0.0
 71
     0
 72
   100
 73
     1
 74
     3
 75
     0
 76
     0
 77
     0
 78
     0
281
     0
 65
     1
110
0.0
120
0.0
130
0.0
111
1.0
121
0.0
131
0.0
112
0.0
122
1.0
132
0.0
 79
     0
146
0.0
  0
ENDTAB
  0
TABLE
  2
LTYPE
  5
5
330
0
100
AcDbSymbolTable
 70
     1
  0
LTYPE
  5
14
330
5
100
AcDbSymbolTableRecord
100
AcDbLinetypeTableRecord
  2
ByBlock
 70
     0
  3

 72
    65
 73
     0
 40
0.0
  0
LTYPE
  5
15
330
5
100
AcDbSymbolTableRecord
100
AcDbLinetypeTableRecord
  2
ByLayer
 70
     0
  3

 72
    65
 73
     0
 40
0.0
  0
LTYPE
  5
16
330
5
100
AcDbSymbolTableRecord
100
AcDbLinetypeTableRecord
  2
Continuous
 70
     0
  3
Solid line
 72
    65
 73
     0
 40
0.0
  0
ENDTAB
  0
TABLE
  2
LAYER
  5
2
330
0
100
AcDbSymbolTable
 70
     2
  0
LAYER
  5
10
330
2
100
AcDbSymbolTableRecord
100
AcDbLayerTableRecord
  2
0
 70
     0
 62
     7
  6
Continuous
370
    -3
390
F
  0
LAYER
  5
3B
330
2
100
AcDbSymbolTableRecord
100
AcDbLayerTableRecord
  2
Layer 1
 70
     0
 62
     7
  6
Continuous
370
    -3
390
F
  0
ENDTAB
  0
TABLE
  2
STYLE
  5
3
330
0
100
AcDbSymbolTable
 70
     1
  0
STYLE
  5
11
330
3
100
AcDbSymbolTableRecord
100
AcDbTextStyleTableRecord
  2
Standard
 70
     0
 40
0.0
 41
1.0
 50
0.0
 71
     0
 42
0.2
  3
txt
  4

  0
ENDTAB
  0
TABLE
  2
VIEW
  5
6
330
0
100
AcDbSymbolTable
 70
     0
  0
ENDTAB
  0
TABLE
  2
UCS
  5
7
330
0
100
AcDbSymbolTable
 70
     0
  0
ENDTAB
  0
TABLE
  2
APPID
  5
9
330
0
100
AcDbSymbolTable
 70
     1
  0
APPID
  5
12
330
9
100
AcDbSymbolTableRecord
100
AcDbRegAppTableRecord
  2
ACAD
 70
     0
  0
ENDTAB
  0
TABLE
  2
DIMSTYLE
  5
A
330
0
100
AcDbSymbolTable
 70
     1
100
AcDbDimStyleTable
  0
DIMSTYLE
105
27
330
A
100
AcDbSymbolTableRecord
100
AcDbDimStyleTableRecord
  2
Standard
 70
     0
340
11
  0
ENDTAB
  0
TABLE
  2
BLOCK_RECORD
  5
1
330
0
100
AcDbSymbolTable
 70
     2
  0
BLOCK_RECORD
  5
1F
330
1
100
AcDbSymbolTableRecord
100
AcDbBlockTableRecord
  2
*Model_Space
340
22
  0
BLOCK_RECORD
  5
1B
330
1
100
AcDbSymbolTableRecord
100
AcDbBlockTableRecord
  2
*Paper_Space
340
1E
  0
BLOCK_RECORD
  5
23
330
1
100
AcDbSymbolTableRecord
100
AcDbBlockTableRecord
  2
*Paper_Space0
340
26
  0
BLOCK_RECORD
  5
3C
330
1
100
AcDbSymbolTableRecord
100
AcDbBlockTableRecord
  2
block 2
340
0
102
{BLKREFS
331
3D
102
}
  0
ENDTAB
  0
ENDSEC
  0
SECTION
  2
BLOCKS
  0
BLOCK
  5
20
330
1F
100
AcDbEntity
  8
0
100
AcDbBlockBegin
  2
*Model_Space
 70
     0
 71
     0
 10
0.0
 20
0.0
 30
0.0
  3
*Model_Space
  1

  0
ENDBLK
  5
21
330
1F
100
AcDbEntity
  8
0
100
AcDbBlockEnd
  0
BLOCK
  5
1C
330
1B
100
AcDbEntity
 67
     1
  8
0
100
AcDbBlockBegin
  2
*Paper_Space
 70
     0
 71
     0
 10
0.0
 20
0.0
 30
0.0
  3
*Paper_Space
  1

  0
ENDBLK
  5
1D
330
1B
100
AcDbEntity
 67
     1
  8
0
100
AcDbBlockEnd
  0
BLOCK
  5
24
330
23
100
AcDbEntity
  8
0
100
AcDbBlockBegin
  2
*Paper_Space0
 70
     0
 71
     0
 10
0.0
 20
0.0
 30
0.0
  3
*Paper_Space0
  1

  0
ENDBLK
  5
25
330
23
100
AcDbEntity
  8
0
100
AcDbBlockEnd
  0
BLOCK
  5
3E
330
3C
100
AcDbEntity
  8
0
100
AcDbBlockBegin
  2
block 2
 70
     0
 71
     0
 10
0.0
 20
0.0
 30
0.0
  3
block 2
  1

  0
SPLINE
  5
40
330
3C
100
AcDbEntity
  8
Layer 1
370
     0
100
AcDbSpline
210
0.0
220
0.0
230
1.0
 70
    11
 71
     3
 72
    17
 73
    13
 74
     0
 42
0.0000000001
 43
0.0000000001
 40
0.0
 40
0.0
 40
0.0
 40
0.0
 40
1.0
 40
1.0
 40
1.0
 40
2.0
 40
2.0
 40
2.0
 40
3.0
 40
3.0
 40
3.0
 40
4.0
 40
4.0
 40
4.0
 40
4.0
 10
254.34814453125
 20
416.1279296875
 30
0.0
 10
251.91064453125
 20
416.1279296875
 30
0.0
 10
249.90771484375
 20
417.9912109375
 30
0.0
 10
249.90771484375
 20
420.56884765625
 30
0.0
 10
249.90771484375
 20
423.146484375
 30
0.0
 10
251.91064453125
 20
425.00927734375
 30
0.0
 10
254.34814453125
 20
425.00927734375
 30
0.0
 10
256.78564453125
 20
425.00927734375
 30
0.0
 10
258.78857421875
 20
423.146484375
 30
0.0
 10
258.78857421875
 20
420.56884765625
 30
0.0
 10
258.78857421875
 20
417.9912109375
 30
0.0
 10
256.78564453125
 20
416.1279296875
 30
0.0
 10
254.34814453125
 20
416.1279296875
 30
0.0
  0
SPLINE
  5
41
330
3C
100
AcDbEntity
  8
Layer 1
370
     0
100
AcDbSpline
210
0.0
220
0.0
230
1.0
 70
    11
 71
     3
 72
    17
 73
    13
 74
     0
 42
0.0000000001
 43
0.0000000001
 40
0.0
 40
0.0
 40
0.0
 40
0.0
 40
1.0
 40
1.0
 40
1.0
 40
2.0
 40
2.0
 40
2.0
 40
3.0
 40
3.0
 40
3.0
 40
4.0
 40
4.0
 40
4.0
 40
4.0
 10
254.34814453125
 20
424.36474609375
 30
0.0
 10
252.27490234375
 20
424.36474609375
 30
0.0
 10
250.56591796875
 20
422.76806640625
 30
0.0
 10
250.56591796875
 20
420.56884765625
 30
0.0
 10
250.56591796875
 20
418.3701171875
 30
0.0
 10
252.27490234375
 20
416.7724609375
 30
0.0
 10
254.34814453125
 20
416.7724609375
 30
0.0
 10
256.42138671875
 20
416.7724609375
 30
0.0
 10
258.13037109375
 20
418.3701171875
 30
0.0
 10
258.13037109375
 20
420.56884765625
 30
0.0
 10
258.13037109375
 20
422.76806640625
 30
0.0
 10
256.42138671875
 20
424.36474609375
 30
0.0
 10
254.34814453125
 20
424.36474609375
 30
0.0
  0
SPLINE
  5
42
330
3C
100
AcDbEntity
  8
Layer 1
370
     0
100
AcDbSpline
210
0.0
220
0.0
230
1.0
 70
    11
 71
     3
 72
    35
 73
    31
 74
     0
 42
0.0000000001
 43
0.0000000001
 40
0.0
 40
0.0
 40
0.0
 40
0.0
 40
1.0
 40
1.0
 40
1.0
 40
2.0
 40
2.0
 40
2.0
 40
3.0
 40
3.0
 40
3.0
 40
4.0
 40
4.0
 40
4.0
 40
5.0
 40
5.0
 40
5.0
 40
6.0
 40
6.0
 40
6.0
 40
7.0
 40
7.0
 40
7.0
 40
8.0
 40
8.0
 40
8.0
 40
9.0
 40
9.0
 40
9.0
 40
10.0
 40
10.0
 40
10.0
 40
10.0
 10
254.54443359375
 20
423.38427734375
 30
0.0
 10
255.11865234375
 20
423.38427734375
 30
0.0
 10
255.56689453125
 20
423.244140625
 30
0.0
 10
255.91748046875
 20
423.02001953125
 30
0.0
 10
255.91748046875
 20
423.02001953125
 30
0.0
 10
255.91748046875
 20
421.71728515625
 30
0.0
 10
255.91748046875
 20
421.71728515625
 30
0.0
 10
255.52490234375
 20
422.01171875
 30
0.0
 10
255.10498046875
 20
422.15185546875
 30
0.0
 10
254.65673828125
 20
422.15185546875
 30
0.0
 10
253.73193359375
 20
422.15185546875
 30
0.0
 10
253.12939453125
 20
421.53515625
 30
0.0
 10
253.12939453125
 20
420.5966796875
 30
0.0
 10
253.12939453125
 20
419.6728515625
 30
0.0
 10
253.73193359375
 20
419.0556640625
 30
0.0
 10
254.65673828125
 20
419.0556640625
 30
0.0
 10
255.10498046875
 20
419.0556640625
 30
0.0
 10
255.52490234375
 20
419.1826171875
 30
0.0
 10
255.91748046875
 20
419.4755859375
 30
0.0
 10
255.91748046875
 20
419.4755859375
 30
0.0
 10
255.91748046875
 20
418.173828125
 30
0.0
 10
255.91748046875
 20
418.173828125
 30
0.0
 10
255.56689453125
 20
417.94921875
 30
0.0
 10
255.11865234375
 20
417.8095703125
 30
0.0
 10
254.54443359375
 20
417.8095703125
 30
0.0
 10
252.89111328125
 20
417.8095703125
 30
0.0
 10
251.77099609375
 20
418.916015625
 30
0.0
 10
251.77099609375
 20
420.5966796875
 30
0.0
 10
251.77099609375
 20
422.27783203125
 30
0.0
 10
252.89111328125
 20
423.38427734375
 30
0.0
 10
254.54443359375
 20
423.38427734375
 30
0.0
  0
HATCH
  5
43
330
3C
100
AcDbEntity
  8
Layer 1
 62
     7
420
 16777215
100
AcDbHatch
 10
0.0
 20
0.0
 30
0.0
210
0.0
220
0.0
230
1.0
  2
SOLID
 70
     1
 71
     0
 91
        3
 92
        1
 93
        1
 72
     4
 94
        3
 73
     0
 74
     1
 95
       17
 96
       13
 40
0.0
 40
0.0
 40
0.0
 40
0.0
 40
1.0
 40
1.0
 40
1.0
 40
2.0
 40
2.0
 40
2.0
 40
3.0
 40
3.0
 40
3.0
 40
4.0
 40
4.0
 40
4.0
 40
4.0
 10
254.34814453125
 20
416.1279296875
 10
251.91064453125
 20
416.1279296875
 10
249.90771484375
 20
417.9912109375
 10
249.90771484375
 20
420.56884765625
 10
249.90771484375
 20
423.146484375
 10
251.91064453125
 20
425.00927734375
 10
254.34814453125
 20
425.00927734375
 10
256.78564453125
 20
425.00927734375
 10
258.78857421875
 20
423.146484375
 10
258.78857421875
 20
420.56884765625
 10
258.78857421875
 20
417.9912109375
 10
256.78564453125
 20
416.1279296875
 10
254.34814453125
 20
416.1279296875
 97
        0
 92
        1
 93
        1
 72
     4
 94
        3
 73
     0
 74
     1
 95
       17
 96
       13
 40
0.0
 40
0.0
 40
0.0
 40
0.0
 40
1.0
 40
1.0
 40
1.0
 40
2.0
 40
2.0
 40
2.0
 40
3.0
 40
3.0
 40
3.0
 40
4.0
 40
4.0
 40
4.0
 40
4.0
 10
254.34814453125
 20
424.36474609375
 10
252.27490234375
 20
424.36474609375
 10
250.56591796875
 20
422.76806640625
 10
250.56591796875
 20
420.56884765625
 10
250.56591796875
 20
418.3701171875
 10
252.27490234375
 20
416.7724609375
 10
254.34814453125
 20
416.7724609375
 10
256.42138671875
 20
416.7724609375
 10
258.13037109375
 20
418.3701171875
 10
258.13037109375
 20
420.56884765625
 10
258.13037109375
 20
422.76806640625
 10
256.42138671875
 20
424.36474609375
 10
254.34814453125
 20
424.36474609375
 97
        0
 92
        1
 93
        1
 72
     4
 94
        3
 73
     0
 74
     1
 95
       35
 96
       31
 40
0.0
 40
0.0
 40
0.0
 40
0.0
 40
1.0
 40
1.0
 40
1.0
 40
2.0
 40
2.0
 40
2.0
 40
3.0
 40
3.0
 40
3.0
 40
4.0
 40
4.0
 40
4.0
 40
5.0
 40
5.0
 40
5.0
 40
6.0
 40
6.0
 40
6.0
 40
7.0
 40
7.0
 40
7.0
 40
8.0
 40
8.0
 40
8.0
 40
9.0
 40
9.0
 40
9.0
 40
10.0
 40
10.0
 40
10.0
 40
10.0
 10
254.54443359375
 20
423.38427734375
 10
255.11865234375
 20
423.38427734375
 10
255.56689453125
 20
423.244140625
 10
255.91748046875
 20
423.02001953125
 10
255.91748046875
 20
423.02001953125
 10
255.91748046875
 20
421.71728515625
 10
255.91748046875
 20
421.71728515625
 10
255.52490234375
 20
422.01171875
 10
255.10498046875
 20
422.15185546875
 10
254.65673828125
 20
422.15185546875
 10
253.73193359375
 20
422.15185546875
 10
253.12939453125
 20
421.53515625
 10
253.12939453125
 20
420.5966796875
 10
253.12939453125
 20
419.6728515625
 10
253.73193359375
 20
419.0556640625
 10
254.65673828125
 20
419.0556640625
 10
255.10498046875
 20
419.0556640625
 10
255.52490234375
 20
419.1826171875
 10
255.91748046875
 20
419.4755859375
 10
255.91748046875
 20
419.4755859375
 10
255.91748046875
 20
418.173828125
 10
255.91748046875
 20
418.173828125
 10
255.56689453125
 20
417.94921875
 10
255.11865234375
 20
417.8095703125
 10
254.54443359375
 20
417.8095703125
 10
252.89111328125
 20
417.8095703125
 10
251.77099609375
 20
418.916015625
 10
251.77099609375
 20
420.5966796875
 10
251.77099609375
 20
422.27783203125
 10
252.89111328125
 20
423.38427734375
 10
254.54443359375
 20
423.38427734375
 97
        0
 75
     2
 76
     1
 98
        0
  0
POLYLINE
  5
44
330
3C
100
AcDbEntity
  8
Layer 1
370
     0
100
AcDb2dPolyline
 66
     1
 10
0.0
 20
0.0
 30
0.0
  0
VERTEX
  5
45
330
44
100
AcDbEntity
  8
Layer 1
370
     0
100
AcDbVertex
100
AcDb2dVertex
 10
262.78759765625
 20
424.869140625
 30
0.0
  0
VERTEX
  5
46
330
44
100
AcDbEntity
  8
Layer 1
370
     0
100
AcDbVertex
100
AcDb2dVertex
 10
269.95947265625
 20
424.869140625
 30
0.0
  0
VERTEX
  5
47
330
44
100
AcDbEntity
  8
Layer 1
370
     0
100
AcDbVertex
100
AcDb2dVertex
 10
269.95947265625
 20
423.58056640625
 30
0.0
  0
VERTEX
  5
48
330
44
100
AcDbEntity
  8
Layer 1
370
     0
100
AcDbVertex
100
AcDb2dVertex
 10
267.10205078125
 20
423.58056640625
 30
0.0
  0
VERTEX
  5
49
330
44
100
AcDbEntity
  8
Layer 1
370
     0
100
AcDbVertex
100
AcDb2dVertex
 10
267.10205078125
 20
416.2685546875
 30
0.0
  0
VERTEX
  5
4A
330
44
100
AcDbEntity
  8
Layer 1
370
     0
100
AcDbVertex
100
AcDb2dVertex
 10
265.64501953125
 20
416.2685546875
 30
0.0
  0
VERTEX
  5
4B
330
44
100
AcDbEntity
  8
Layer 1
370
     0
100
AcDbVertex
100
AcDb2dVertex
 10
265.64501953125
 20
423.58056640625
 30
0.0
  0
VERTEX
  5
4C
330
44
100
AcDbEntity
  8
Layer 1
370
     0
100
AcDbVertex
100
AcDb2dVertex
 10
262.78759765625
 20
423.58056640625
 30
0.0
  0
VERTEX
  5
4D
330
44
100
AcDbEntity
  8
Layer 1
370
     0
100
AcDbVertex
100
AcDb2dVertex
 10
262.78759765625
 20
424.869140625
 30
0.0
  0
SEQEND
  5
4E
330
44
100
AcDbEntity
  8
Layer 1
370
     0
  0
HATCH
  5
4F
330
3C
100
AcDbEntity
  8
Layer 1
 62
     7
420
 16777215
100
AcDbHatch
 10
0.0
 20
0.0
 30
0.0
210
0.0
220
0.0
230
1.0
  2
SOLID
 70
     1
 71
     0
 91
        1
 92
        1
 93
        8
 72
     1
 10
262.78759765625
 20
424.869140625
 11
269.95947265625
 21
424.869140625
 72
     1
 10
269.95947265625
 20
424.869140625
 11
269.95947265625
 21
423.58056640625
 72
     1
 10
269.95947265625
 20
423.58056640625
 11
267.10205078125
 21
423.58056640625
 72
     1
 10
267.10205078125
 20
423.58056640625
 11
267.10205078125
 21
416.2685546875
 72
     1
 10
267.10205078125
 20
416.2685546875
 11
265.64501953125
 21
416.2685546875
 72
     1
 10
265.64501953125
 20
416.2685546875
 11
265.64501953125
 21
423.58056640625
 72
     1
 10
265.64501953125
 20
423.58056640625
 11
262.78759765625
 21
423.58056640625
 72
     1
 10
262.78759765625
 20
423.58056640625
 11
262.78759765625
 21
424.869140625
 97
        0
 75
     2
 76
     1
 98
        0
  0
SPLINE
  5
50
330
3C
100
AcDbEntity
  8
Layer 1
370
     0
100
AcDbSpline
210
0.0
220
0.0
230
1.0
 70
    11
 71
     3
 72
    35
 73
    31
 74
     0
 42
0.0000000001
 43
0.0000000001
 40
0.0
 40
0.0
 40
0.0
 40
0.0
 40
1.0
 40
1.0
 40
1.0
 40
2.0
 40
2.0
 40
2.0
 40
3.0
 40
3.0
 40
3.0
 40
4.0
 40
4.0
 40
4.0
 40
5.0
 40
5.0
 40
5.0
 40
6.0
 40
6.0
 40
6.0
 40
7.0
 40
7.0
 40
7.0
 40
8.0
 40
8.0
 40
8.0
 40
9.0
 40
9.0
 40
9.0
 40
10.0
 40
10.0
 40
10.0
 40
10.0
 10
273.87841796875
 20
421.0732421875
 30
0.0
 10
273.68212890625
 20
421.21337890625
 30
0.0
 10
273.34521484375
 20
421.283203125
 30
0.0
 10
273.05126953125
 20
421.283203125
 30
0.0
 10
272.47705078125
 20
421.283203125
 30
0.0
 10
271.94482421875
 20
420.9609375
 30
0.0
 10
271.80517578125
 20
420.28857421875
 30
0.0
 10
271.80517578125
 20
420.28857421875
 30
0.0
 10
271.80517578125
 20
416.2685546875
 30
0.0
 10
271.80517578125
 20
416.2685546875
 30
0.0
 10
271.80517578125
 20
416.2685546875
 30
0.0
 10
270.40380859375
 20
416.2685546875
 30
0.0
 10
270.40380859375
 20
416.2685546875
 30
0.0
 10
270.40380859375
 20
416.2685546875
 30
0.0
 10
270.40380859375
 20
422.48779296875
 30
0.0
 10
270.40380859375
 20
422.48779296875
 30
0.0
 10
270.40380859375
 20
422.48779296875
 30
0.0
 10
271.80517578125
 20
422.48779296875
 30
0.0
 10
271.80517578125
 20
422.48779296875
 30
0.0
 10
271.80517578125
 20
422.48779296875
 30
0.0
 10
271.80517578125
 20
421.84375
 30
0.0
 10
271.80517578125
 20
421.84375
 30
0.0
 10
272.04345703125
 20
422.3056640625
 30
0.0
 10
272.58935546875
 20
422.6279296875
 30
0.0
 10
273.19189453125
 20
422.6279296875
 30
0.0
 10
273.49951171875
 20
422.6279296875
 30
0.0
 10
273.77978515625
 20
422.57177734375
 30
0.0
 10
273.87841796875
 20
422.51611328125
 30
0.0
 10
273.87841796875
 20
422.51611328125
 30
0.0
 10
273.87841796875
 20
421.0732421875
 30
0.0
 10
273.87841796875
 20
421.0732421875
 30
0.0
  0
HATCH
  5
51
330
3C
100
AcDbEntity
  8
Layer 1
 62
     7
420
 16777215
100
AcDbHatch
 10
0.0
 20
0.0
 30
0.0
210
0.0
220
0.0
230
1.0
  2
SOLID
 70
     1
 71
     0
 91
        1
 92
        1
 93
        1
 72
     4
 94
        3
 73
     0
 74
     1
 95
       35
 96
       31
 40
0.0
 40
0.0
 40
0.0
 40
0.0
 40
1.0
 40
1.0
 40
1.0
 40
2.0
 40
2.0
 40
2.0
 40
3.0
 40
3.0
 40
3.0
 40
4.0
 40
4.0
 40
4.0
 40
5.0
 40
5.0
 40
5.0
 40
6.0
 40
6.0
 40
6.0
 40
7.0
 40
7.0
 40
7.0
 40
8.0
 40
8.0
 40
8.0
 40
9.0
 40
9.0
 40
9.0
 40
10.0
 40
10.0
 40
10.0
 40
10.0
 10
273.87841796875
 20
421.0732421875
 10
273.68212890625
 20
421.21337890625
 10
273.34521484375
 20
421.283203125
 10
273.05126953125
 20
421.283203125
 10
272.47705078125
 20
421.283203125
 10
271.94482421875
 20
420.9609375
 10
271.80517578125
 20
420.28857421875
 10
271.80517578125
 20
420.28857421875
 10
271.80517578125
 20
416.2685546875
 10
271.80517578125
 20
416.2685546875
 10
271.80517578125
 20
416.2685546875
 10
270.40380859375
 20
416.2685546875
 10
270.40380859375
 20
416.2685546875
 10
270.40380859375
 20
416.2685546875
 10
270.40380859375
 20
422.48779296875
 10
270.40380859375
 20
422.48779296875
 10
270.40380859375
 20
422.48779296875
 10
271.80517578125
 20
422.48779296875
 10
271.80517578125
 20
422.48779296875
 10
271.80517578125
 20
422.48779296875
 10
271.80517578125
 20
421.84375
 10
271.80517578125
 20
421.84375
 10
272.04345703125
 20
422.3056640625
 10
272.58935546875
 20
422.6279296875
 10
273.19189453125
 20
422.6279296875
 10
273.49951171875
 20
422.6279296875
 10
273.77978515625
 20
422.57177734375
 10
273.87841796875
 20
422.51611328125
 10
273.87841796875
 20
422.51611328125
 10
273.87841796875
 20
421.0732421875
 10
273.87841796875
 20
421.0732421875
 97
        0
 75
     2
 76
     1
 98
        0
  0
SPLINE
  5
52
330
3C
100
AcDbEntity
  8
Layer 1
370
     0
100
AcDbSpline
210
0.0
220
0.0
230
1.0
 70
    11
 71
     3
 72
    17
 73
    13
 74
     0
 42
0.0000000001
 43
0.0000000001
 40
0.0
 40
0.0
 40
0.0
 40
0.0
 40
1.0
 40
1.0
 40
1.0
 40
2.0
 40
2.0
 40
2.0
 40
3.0
 40
3.0
 40
3.0
 40
4.0
 40
4.0
 40
4.0
 40
4.0
 10
275.86474609375
 20
423.51025390625
 30
0.0
 10
275.40185546875
 20
423.51025390625
 30
0.0
 10
274.99560546875
 20
423.888671875
 30
0.0
 10
274.99560546875
 20
424.36474609375
 30
0.0
 10
274.99560546875
 20
424.84130859375
 30
0.0
 10
275.40185546875
 20
425.21923828125
 30
0.0
 10
275.86474609375
 20
425.21923828125
 30
0.0
 10
276.32666015625
 20
425.21923828125
 30
0.0
 10
276.73291015625
 20
424.84130859375
 30
0.0
 10
276.73291015625
 20
424.36474609375
 30
0.0
 10
276.73291015625
 20
423.888671875
 30
0.0
 10
276.32666015625
 20
423.51025390625
 30
0.0
 10
275.86474609375
 20
423.51025390625
 30
0.0
  0
POLYLINE
  5
53
330
3C
100
AcDbEntity
  8
Layer 1
370
     0
100
AcDb2dPolyline
 66
     1
 10
0.0
 20
0.0
 30
0.0
  0
VERTEX
  5
54
330
53
100
AcDbEntity
  8
Layer 1
370
     0
100
AcDbVertex
100
AcDb2dVertex
 10
276.56494140625
 20
416.2685546875
 30
0.0
  0
VERTEX
  5
55
330
53
100
AcDbEntity
  8
Layer 1
370
     0
100
AcDbVertex
100
AcDb2dVertex
 10
275.16357421875
 20
416.2685546875
 30
0.0
  0
VERTEX
  5
56
330
53
100
AcDbEntity
  8
Layer 1
370
     0
100
AcDbVertex
100
AcDb2dVertex
 10
275.16357421875
 20
422.48779296875
 30
0.0
  0
VERTEX
  5
57
330
53
100
AcDbEntity
  8
Layer 1
370
     0
100
AcDbVertex
100
AcDb2dVertex
 10
276.56494140625
 20
422.48779296875
 30
0.0
  0
VERTEX
  5
58
330
53
100
AcDbEntity
  8
Layer 1
370
     0
100
AcDbVertex
100
AcDb2dVertex
 10
276.56494140625
 20
416.2685546875
 30
0.0
  0
SEQEND
  5
59
330
53
100
AcDbEntity
  8
Layer 1
370
     0
  0
HATCH
  5
5A
330
3C
100
AcDbEntity
  8
Layer 1
 62
     7
420
 16777215
100
AcDbHatch
 10
0.0
 20
0.0
 30
0.0
210
0.0
220
0.0
230
1.0
  2
SOLID
 70
     1
 71
     0
 91
        2
 92
        1
 93
        1
 72
     4
 94
        3
 73
     0
 74
     1
 95
       17
 96
       13
 40
0.0
 40
0.0
 40
0.0
 40
0.0
 40
1.0
 40
1.0
 40
1.0
 40
2.0
 40
2.0
 40
2.0
 40
3.0
 40
3.0
 40
3.0
 40
4.0
 40
4.0
 40
4.0
 40
4.0
 10
275.86474609375
 20
423.51025390625
 10
275.40185546875
 20
423.51025390625
 10
274.99560546875
 20
423.888671875
 10
274.99560546875
 20
424.36474609375
 10
274.99560546875
 20
424.84130859375
 10
275.40185546875
 20
425.21923828125
 10
275.86474609375
 20
425.21923828125
 10
276.32666015625
 20
425.21923828125
 10
276.73291015625
 20
424.84130859375
 10
276.73291015625
 20
424.36474609375
 10
276.73291015625
 20
423.888671875
 10
276.32666015625
 20
423.51025390625
 10
275.86474609375
 20
423.51025390625
 97
        0
 92
        1
 93
        4
 72
     1
 10
276.56494140625
 20
416.2685546875
 11
275.16357421875
 21
416.2685546875
 72
     1
 10
275.16357421875
 20
416.2685546875
 11
275.16357421875
 21
422.48779296875
 72
     1
 10
275.16357421875
 20
422.48779296875
 11
276.56494140625
 21
422.48779296875
 72
     1
 10
276.56494140625
 20
422.48779296875
 11
276.56494140625
 21
416.2685546875
 97
        0
 75
     2
 76
     1
 98
        0
  0
SPLINE
  5
5B
330
3C
100
AcDbEntity
  8
Layer 1
370
     0
100
AcDbSpline
210
0.0
220
0.0
230
1.0
 70
    11
 71
     3
 72
    44
 73
    40
 74
     0
 42
0.0000000001
 43
0.0000000001
 40
0.0
 40
0.0
 40
0.0
 40
0.0
 40
1.0
 40
1.0
 40
1.0
 40
2.0
 40
2.0
 40
2.0
 40
3.0
 40
3.0
 40
3.0
 40
4.0
 40
4.0
 40
4.0
 40
5.0
 40
5.0
 40
5.0
 40
6.0
 40
6.0
 40
6.0
 40
7.0
 40
7.0
 40
7.0
 40
8.0
 40
8.0
 40
8.0
 40
9.0
 40
9.0
 40
9.0
 40
10.0
 40
10.0
 40
10.0
 40
11.0
 40
11.0
 40
11.0
 40
12.0
 40
12.0
 40
12.0
 40
13.0
 40
13.0
 40
13.0
 40
13.0
 10
282.30615234375
 20
416.884765625
 30
0.0
 10
282.02587890625
 20
416.548828125
 30
0.0
 10
281.43701171875
 20
416.2412109375
 30
0.0
 10
280.73681640625
 20
416.2412109375
 30
0.0
 10
278.90185546875
 20
416.2412109375
 30
0.0
 10
277.86572265625
 20
417.767578125
 30
0.0
 10
277.86572265625
 20
419.4345703125
 30
0.0
 10
277.86572265625
 20
421.10107421875
 30
0.0
 10
278.90185546875
 20
422.6279296875
 30
0.0
 10
280.73681640625
 20
422.6279296875
 30
0.0
 10
281.43701171875
 20
422.6279296875
 30
0.0
 10
282.02587890625
 20
422.31982421875
 30
0.0
 10
282.30615234375
 20
421.9833984375
 30
0.0
 10
282.30615234375
 20
421.9833984375
 30
0.0
 10
282.30615234375
 20
422.48779296875
 30
0.0
 10
282.30615234375
 20
422.48779296875
 30
0.0
 10
282.30615234375
 20
422.48779296875
 30
0.0
 10
283.70654296875
 20
422.48779296875
 30
0.0
 10
283.70654296875
 20
422.48779296875
 30
0.0
 10
283.70654296875
 20
422.48779296875
 30
0.0
 10
283.70654296875
 20
416.7861328125
 30
0.0
 10
283.70654296875
 20
416.7861328125
 30
0.0
 10
283.70654296875
 20
414.517578125
 30
0.0
 10
281.98388671875
 20
413.7470703125
 30
0.0
 10
280.51318359375
 20
413.7470703125
 30
0.0
 10
279.68603515625
 20
413.7470703125
 30
0.0
 10
278.94384765625
 20
413.9580078125
 30
0.0
 10
278.43994140625
 20
414.279296875
 30
0.0
 10
278.43994140625
 20
414.279296875
 30
0.0
 10
278.43994140625
 20
415.7646484375
 30
0.0
 10
278.43994140625
 20
415.7646484375
 30
0.0
 10
279.08447265625
 20
415.1904296875
 30
0.0
 10
279.72802734375
 20
414.9794921875
 30
0.0
 10
280.51318359375
 20
414.9794921875
 30
0.0
 10
281.50732421875
 20
414.9794921875
 30
0.0
 10
282.30615234375
 20
415.568359375
 30
0.0
 10
282.30615234375
 20
416.6884765625
 30
0.0
 10
282.30615234375
 20
416.6884765625
 30
0.0
 10
282.30615234375
 20
416.884765625
 30
0.0
 10
282.30615234375
 20
416.884765625
 30
0.0
  0
SPLINE
  5
5C
330
3C
100
AcDbEntity
  8
Layer 1
370
     0
100
AcDbSpline
210
0.0
220
0.0
230
1.0
 70
    11
 71
     3
 72
    20
 73
    16
 74
     0
 42
0.0000000001
 43
0.0000000001
 40
0.0
 40
0.0
 40
0.0
 40
0.0
 40
1.0
 40
1.0
 40
1.0
 40
2.0
 40
2.0
 40
2.0
 40
3.0
 40
3.0
 40
3.0
 40
4.0
 40
4.0
 40
4.0
 40
5.0
 40
5.0
 40
5.0
 40
5.0
 10
282.30615234375
 20
420.65283203125
 30
0.0
 10
282.06787109375
 20
421.0732421875
 30
0.0
 10
281.56298828125
 20
421.3955078125
 30
0.0
 10
280.97509765625
 20
421.3955078125
 30
0.0
 10
279.89599609375
 20
421.3955078125
 30
0.0
 10
279.27978515625
 20
420.56884765625
 30
0.0
 10
279.27978515625
 20
419.4345703125
 30
0.0
 10
279.27978515625
 20
418.2998046875
 30
0.0
 10
279.89599609375
 20
417.4736328125
 30
0.0
 10
280.97509765625
 20
417.4736328125
 30
0.0
 10
281.56298828125
 20
417.4736328125
 30
0.0
 10
282.06787109375
 20
417.7958984375
 30
0.0
 10
282.30615234375
 20
418.2158203125
 30
0.0
 10
282.30615234375
 20
418.2158203125
 30
0.0
 10
282.30615234375
 20
420.65283203125
 30
0.0
 10
282.30615234375
 20
420.65283203125
 30
0.0
  0
HATCH
  5
5D
330
3C
100
AcDbEntity
  8
Layer 1
 62
     7
420
 16777215
100
AcDbHatch
 10
0.0
 20
0.0
 30
0.0
210
0.0
220
0.0
230
1.0
  2
SOLID
 70
     1
 71
     0
 91
        2
 92
        1
 93
        1
 72
     4
 94
        3
 73
     0
 74
     1
 95
       44
 96
       40
 40
0.0
 40
0.0
 40
0.0
 40
0.0
 40
1.0
 40
1.0
 40
1.0
 40
2.0
 40
2.0
 40
2.0
 40
3.0
 40
3.0
 40
3.0
 40
4.0
 40
4.0
 40
4.0
 40
5.0
 40
5.0
 40
5.0
 40
6.0
 40
6.0
 40
6.0
 40
7.0
 40
7.0
 40
7.0
 40
8.0
 40
8.0
 40
8.0
 40
9.0
 40
9.0
 40
9.0
 40
10.0
 40
10.0
 40
10.0
 40
11.0
 40
11.0
 40
11.0
 40
12.0
 40
12.0
 40
12.0
 40
13.0
 40
13.0
 40
13.0
 40
13.0
 10
282.30615234375
 20
416.884765625
 10
282.02587890625
 20
416.548828125
 10
281.43701171875
 20
416.2412109375
 10
280.73681640625
 20
416.2412109375
 10
278.90185546875
 20
416.2412109375
 10
277.86572265625
 20
417.767578125
 10
277.86572265625
 20
419.4345703125
 10
277.86572265625
 20
421.10107421875
 10
278.90185546875
 20
422.6279296875
 10
280.73681640625
 20
422.6279296875
 10
281.43701171875
 20
422.6279296875
 10
282.02587890625
 20
422.31982421875
 10
282.30615234375
 20
421.9833984375
 10
282.30615234375
 20
421.9833984375
 10
282.30615234375
 20
422.48779296875
 10
282.30615234375
 20
422.48779296875
 10
282.30615234375
 20
422.48779296875
 10
283.70654296875
 20
422.48779296875
 10
283.70654296875
 20
422.48779296875
 10
283.70654296875
 20
422.48779296875
 10
283.70654296875
 20
416.7861328125
 10
283.70654296875
 20
416.7861328125
 10
283.70654296875
 20
414.517578125
 10
281.98388671875
 20
413.7470703125
 10
280.51318359375
 20
413.7470703125
 10
279.68603515625
 20
413.7470703125
 10
278.94384765625
 20
413.9580078125
 10
278.43994140625
 20
414.279296875
 10
278.43994140625
 20
414.279296875
 10
278.43994140625
 20
415.7646484375
 10
278.43994140625
 20
415.7646484375
 10
279.08447265625
 20
415.1904296875
 10
279.72802734375
 20
414.9794921875
 10
280.51318359375
 20
414.9794921875
 10
281.50732421875
 20
414.9794921875
 10
282.30615234375
 20
415.568359375
 10
282.30615234375
 20
416.6884765625
 10
282.30615234375
 20
416.6884765625
 10
282.30615234375
 20
416.884765625
 10
282.30615234375
 20
416.884765625
 97
        0
 92
        1
 93
        1
 72
     4
 94
        3
 73
     0
 74
     1
 95
       20
 96
       16
 40
0.0
 40
0.0
 40
0.0
 40
0.0
 40
1.0
 40
1.0
 40
1.0
 40
2.0
 40
2.0
 40
2.0
 40
3.0
 40
3.0
 40
3.0
 40
4.0
 40
4.0
 40
4.0
 40
5.0
 40
5.0
 40
5.0
 40
5.0
 10
282.30615234375
 20
420.65283203125
 10
282.06787109375
 20
421.0732421875
 10
281.56298828125
 20
421.3955078125
 10
280.97509765625
 20
421.3955078125
 10
279.89599609375
 20
421.3955078125
 10
279.27978515625
 20
420.56884765625
 10
279.27978515625
 20
419.4345703125
 10
279.27978515625
 20
418.2998046875
 10
279.89599609375
 20
417.4736328125
 10
280.97509765625
 20
417.4736328125
 10
281.56298828125
 20
417.4736328125
 10
282.06787109375
 20
417.7958984375
 10
282.30615234375
 20
418.2158203125
 10
282.30615234375
 20
418.2158203125
 10
282.30615234375
 20
420.65283203125
 10
282.30615234375
 20
420.65283203125
 97
        0
 75
     2
 76
     1
 98
        0
  0
SPLINE
  5
5E
330
3C
100
AcDbEntity
  8
Layer 1
370
     0
100
AcDbSpline
210
0.0
220
0.0
230
1.0
 70
    11
 71
     3
 72
    44
 73
    40
 74
     0
 42
0.0000000001
 43
0.0000000001
 40
0.0
 40
0.0
 40
0.0
 40
0.0
 40
1.0
 40
1.0
 40
1.0
 40
2.0
 40
2.0
 40
2.0
 40
3.0
 40
3.0
 40
3.0
 40
4.0
 40
4.0
 40
4.0
 40
5.0
 40
5.0
 40
5.0
 40
6.0
 40
6.0
 40
6.0
 40
7.0
 40
7.0
 40
7.0
 40
8.0
 40
8.0
 40
8.0
 40
9.0
 40
9.0
 40
9.0
 40
10.0
 40
10.0
 40
10.0
 40
11.0
 40
11.0
 40
11.0
 40
12.0
 40
12.0
 40
12.0
 40
13.0
 40
13.0
 40
13.0
 40
13.0
 10
289.44580078125
 20
416.884765625
 30
0.0
 10
289.16552734375
 20
416.548828125
 30
0.0
 10
288.57666015625
 20
416.2412109375
 30
0.0
 10
287.87646484375
 20
416.2412109375
 30
0.0
 10
286.04150390625
 20
416.2412109375
 30
0.0
 10
285.00537109375
 20
417.767578125
 30
0.0
 10
285.00537109375
 20
419.4345703125
 30
0.0
 10
285.00537109375
 20
421.10107421875
 30
0.0
 10
286.04150390625
 20
422.6279296875
 30
0.0
 10
287.87646484375
 20
422.6279296875
 30
0.0
 10
288.57666015625
 20
422.6279296875
 30
0.0
 10
289.16552734375
 20
422.31982421875
 30
0.0
 10
289.44580078125
 20
421.9833984375
 30
0.0
 10
289.44580078125
 20
421.9833984375
 30
0.0
 10
289.44580078125
 20
422.48779296875
 30
0.0
 10
289.44580078125
 20
422.48779296875
 30
0.0
 10
289.44580078125
 20
422.48779296875
 30
0.0
 10
290.84619140625
 20
422.48779296875
 30
0.0
 10
290.84619140625
 20
422.48779296875
 30
0.0
 10
290.84619140625
 20
422.48779296875
 30
0.0
 10
290.84619140625
 20
416.7861328125
 30
0.0
 10
290.84619140625
 20
416.7861328125
 30
0.0
 10
290.84619140625
 20
414.517578125
 30
0.0
 10
289.12353515625
 20
413.7470703125
 30
0.0
 10
287.65283203125
 20
413.7470703125
 30
0.0
 10
286.82568359375
 20
413.7470703125
 30
0.0
 10
286.08349609375
 20
413.9580078125
 30
0.0
 10
285.57958984375
 20
414.279296875
 30
0.0
 10
285.57958984375
 20
414.279296875
 30
0.0
 10
285.57958984375
 20
415.7646484375
 30
0.0
 10
285.57958984375
 20
415.7646484375
 30
0.0
 10
286.22412109375
 20
415.1904296875
 30
0.0
 10
286.86767578125
 20
414.9794921875
 30
0.0
 10
287.65283203125
 20
414.9794921875
 30
0.0
 10
288.64697265625
 20
414.9794921875
 30
0.0
 10
289.44580078125
 20
415.568359375
 30
0.0
 10
289.44580078125
 20
416.6884765625
 30
0.0
 10
289.44580078125
 20
416.6884765625
 30
0.0
 10
289.44580078125
 20
416.884765625
 30
0.0
 10
289.44580078125
 20
416.884765625
 30
0.0
  0
SPLINE
  5
5F
330
3C
100
AcDbEntity
  8
Layer 1
370
     0
100
AcDbSpline
210
0.0
220
0.0
230
1.0
 70
    11
 71
     3
 72
    20
 73
    16
 74
     0
 42
0.0000000001
 43
0.0000000001
 40
0.0
 40
0.0
 40
0.0
 40
0.0
 40
1.0
 40
1.0
 40
1.0
 40
2.0
 40
2.0
 40
2.0
 40
3.0
 40
3.0
 40
3.0
 40
4.0
 40
4.0
 40
4.0
 40
5.0
 40
5.0
 40
5.0
 40
5.0
 10
289.44580078125
 20
420.65283203125
 30
0.0
 10
289.20751953125
 20
421.0732421875
 30
0.0
 10
288.70263671875
 20
421.3955078125
 30
0.0
 10
288.11474609375
 20
421.3955078125
 30
0.0
 10
287.03662109375
 20
421.3955078125
 30
0.0
 10
286.41943359375
 20
420.56884765625
 30
0.0
 10
286.41943359375
 20
419.4345703125
 30
0.0
 10
286.41943359375
 20
418.2998046875
 30
0.0
 10
287.03662109375
 20
417.4736328125
 30
0.0
 10
288.11474609375
 20
417.4736328125
 30
0.0
 10
288.70263671875
 20
417.4736328125
 30
0.0
 10
289.20751953125
 20
417.7958984375
 30
0.0
 10
289.44580078125
 20
418.2158203125
 30
0.0
 10
289.44580078125
 20
418.2158203125
 30
0.0
 10
289.44580078125
 20
420.65283203125
 30
0.0
 10
289.44580078125
 20
420.65283203125
 30
0.0
  0
HATCH
  5
60
330
3C
100
AcDbEntity
  8
Layer 1
 62
     7
420
 16777215
100
AcDbHatch
 10
0.0
 20
0.0
 30
0.0
210
0.0
220
0.0
230
1.0
  2
SOLID
 70
     1
 71
     0
 91
        2
 92
        1
 93
        1
 72
     4
 94
        3
 73
     0
 74
     1
 95
       44
 96
       40
 40
0.0
 40
0.0
 40
0.0
 40
0.0
 40
1.0
 40
1.0
 40
1.0
 40
2.0
 40
2.0
 40
2.0
 40
3.0
 40
3.0
 40
3.0
 40
4.0
 40
4.0
 40
4.0
 40
5.0
 40
5.0
 40
5.0
 40
6.0
 40
6.0
 40
6.0
 40
7.0
 40
7.0
 40
7.0
 40
8.0
 40
8.0
 40
8.0
 40
9.0
 40
9.0
 40
9.0
 40
10.0
 40
10.0
 40
10.0
 40
11.0
 40
11.0
 40
11.0
 40
12.0
 40
12.0
 40
12.0
 40
13.0
 40
13.0
 40
13.0
 40
13.0
 10
289.44580078125
 20
416.884765625
 10
289.16552734375
 20
416.548828125
 10
288.57666015625
 20
416.2412109375
 10
287.87646484375
 20
416.2412109375
 10
286.04150390625
 20
416.2412109375
 10
285.00537109375
 20
417.767578125
 10
285.00537109375
 20
419.4345703125
 10
285.00537109375
 20
421.10107421875
 10
286.04150390625
 20
422.6279296875
 10
287.87646484375
 20
422.6279296875
 10
288.57666015625
 20
422.6279296875
 10
289.16552734375
 20
422.31982421875
 10
289.44580078125
 20
421.9833984375
 10
289.44580078125
 20
421.9833984375
 10
289.44580078125
 20
422.48779296875
 10
289.44580078125
 20
422.48779296875
 10
289.44580078125
 20
422.48779296875
 10
290.84619140625
 20
422.48779296875
 10
290.84619140625
 20
422.48779296875
 10
290.84619140625
 20
422.48779296875
 10
290.84619140625
 20
416.7861328125
 10
290.84619140625
 20
416.7861328125
 10
290.84619140625
 20
414.517578125
 10
289.12353515625
 20
413.7470703125
 10
287.65283203125
 20
413.7470703125
 10
286.82568359375
 20
413.7470703125
 10
286.08349609375
 20
413.9580078125
 10
285.57958984375
 20
414.279296875
 10
285.57958984375
 20
414.279296875
 10
285.57958984375
 20
415.7646484375
 10
285.57958984375
 20
415.7646484375
 10
286.22412109375
 20
415.1904296875
 10
286.86767578125
 20
414.9794921875
 10
287.65283203125
 20
414.9794921875
 10
288.64697265625
 20
414.9794921875
 10
289.44580078125
 20
415.568359375
 10
289.44580078125
 20
416.6884765625
 10
289.44580078125
 20
416.6884765625
 10
289.44580078125
 20
416.884765625
 10
289.44580078125
 20
416.884765625
 97
        0
 92
        1
 93
        1
 72
     4
 94
        3
 73
     0
 74
     1
 95
       20
 96
       16
 40
0.0
 40
0.0
 40
0.0
 40
0.0
 40
1.0
 40
1.0
 40
1.0
 40
2.0
 40
2.0
 40
2.0
 40
3.0
 40
3.0
 40
3.0
 40
4.0
 40
4.0
 40
4.0
 40
5.0
 40
5.0
 40
5.0
 40
5.0
 10
289.44580078125
 20
420.65283203125
 10
289.20751953125
 20
421.0732421875
 10
288.70263671875
 20
421.3955078125
 10
288.11474609375
 20
421.3955078125
 10
287.03662109375
 20
421.3955078125
 10
286.41943359375
 20
420.56884765625
 10
286.41943359375
 20
419.4345703125
 10
286.41943359375
 20
418.2998046875
 10
287.03662109375
 20
417.4736328125
 10
288.11474609375
 20
417.4736328125
 10
288.70263671875
 20
417.4736328125
 10
289.20751953125
 20
417.7958984375
 10
289.44580078125
 20
418.2158203125
 10
289.44580078125
 20
418.2158203125
 10
289.44580078125
 20
420.65283203125
 10
289.44580078125
 20
420.65283203125
 97
        0
 75
     2
 76
     1
 98
        0
  0
SPLINE
  5
61
330
3C
100
AcDbEntity
  8
Layer 1
370
     0
100
AcDbSpline
210
0.0
220
0.0
230
1.0
 70
    11
 71
     3
 72
    32
 73
    28
 74
     0
 42
0.0000000001
 43
0.0000000001
 40
0.0
 40
0.0
 40
0.0
 40
0.0
 40
1.0
 40
1.0
 40
1.0
 40
2.0
 40
2.0
 40
2.0
 40
3.0
 40
3.0
 40
3.0
 40
4.0
 40
4.0
 40
4.0
 40
5.0
 40
5.0
 40
5.0
 40
6.0
 40
6.0
 40
6.0
 40
7.0
 40
7.0
 40
7.0
 40
8.0
 40
8.0
 40
8.0
 40
9.0
 40
9.0
 40
9.0
 40
9.0
 10
293.50439453125
 20
419.0703125
 30
0.0
 10
293.60205078125
 20
417.8515625
 30
0.0
 10
294.42919921875
 20
417.3330078125
 30
0.0
 10
295.42333984375
 20
417.3330078125
 30
0.0
 10
296.12353515625
 20
417.3330078125
 30
0.0
 10
296.61376953125
 20
417.5009765625
 30
0.0
 10
297.20263671875
 20
417.9072265625
 30
0.0
 10
297.20263671875
 20
417.9072265625
 30
0.0
 10
297.20263671875
 20
416.6748046875
 30
0.0
 10
297.20263671875
 20
416.6748046875
 30
0.0
 10
296.67041015625
 20
416.2822265625
 30
0.0
 10
296.01220703125
 20
416.1279296875
 30
0.0
 10
295.22705078125
 20
416.1279296875
 30
0.0
 10
293.40673828125
 20
416.1279296875
 30
0.0
 10
292.14599609375
 20
417.361328125
 30
0.0
 10
292.14599609375
 20
419.322265625
 30
0.0
 10
292.14599609375
 20
421.26904296875
 30
0.0
 10
293.33642578125
 20
422.6279296875
 30
0.0
 10
295.00341796875
 20
422.6279296875
 30
0.0
 10
296.72607421875
 20
422.6279296875
 30
0.0
 10
297.62255859375
 20
421.3955078125
 30
0.0
 10
297.62255859375
 20
419.57421875
 30
0.0
 10
297.62255859375
 20
419.57421875
 30
0.0
 10
297.62255859375
 20
419.0703125
 30
0.0
 10
297.62255859375
 20
419.0703125
 30
0.0
 10
297.62255859375
 20
419.0703125
 30
0.0
 10
293.50439453125
 20
419.0703125
 30
0.0
 10
293.50439453125
 20
419.0703125
 30
0.0
  0
SPLINE
  5
62
330
3C
100
AcDbEntity
  8
Layer 1
370
     0
100
AcDbSpline
210
0.0
220
0.0
230
1.0
 70
    11
 71
     3
 72
    14
 73
    10
 74
     0
 42
0.0000000001
 43
0.0000000001
 40
0.0
 40
0.0
 40
0.0
 40
0.0
 40
1.0
 40
1.0
 40
1.0
 40
2.0
 40
2.0
 40
2.0
 40
3.0
 40
3.0
 40
3.0
 40
3.0
 10
293.58837890625
 20
420.134765625
 30
0.0
 10
293.58837890625
 20
420.134765625
 30
0.0
 10
296.29150390625
 20
420.134765625
 30
0.0
 10
296.29150390625
 20
420.134765625
 30
0.0
 10
296.24951171875
 20
420.89111328125
 30
0.0
 10
295.81591796875
 20
421.451171875
 30
0.0
 10
295.01708984375
 20
421.451171875
 30
0.0
 10
294.40087890625
 20
421.451171875
 30
0.0
 10
293.79833984375
 20
421.0869140625
 30
0.0
 10
293.58837890625
 20
420.134765625
 30
0.0
  0
HATCH
  5
63
330
3C
100
AcDbEntity
  8
Layer 1
 62
     7
420
 16777215
100
AcDbHatch
 10
0.0
 20
0.0
 30
0.0
210
0.0
220
0.0
230
1.0
  2
SOLID
 70
     1
 71
     0
 91
        2
 92
        1
 93
        1
 72
     4
 94
        3
 73
     0
 74
     1
 95
       32
 96
       28
 40
0.0
 40
0.0
 40
0.0
 40
0.0
 40
1.0
 40
1.0
 40
1.0
 40
2.0
 40
2.0
 40
2.0
 40
3.0
 40
3.0
 40
3.0
 40
4.0
 40
4.0
 40
4.0
 40
5.0
 40
5.0
 40
5.0
 40
6.0
 40
6.0
 40
6.0
 40
7.0
 40
7.0
 40
7.0
 40
8.0
 40
8.0
 40
8.0
 40
9.0
 40
9.0
 40
9.0
 40
9.0
 10
293.50439453125
 20
419.0703125
 10
293.60205078125
 20
417.8515625
 10
294.42919921875
 20
417.3330078125
 10
295.42333984375
 20
417.3330078125
 10
296.12353515625
 20
417.3330078125
 10
296.61376953125
 20
417.5009765625
 10
297.20263671875
 20
417.9072265625
 10
297.20263671875
 20
417.9072265625
 10
297.20263671875
 20
416.6748046875
 10
297.20263671875
 20
416.6748046875
 10
296.67041015625
 20
416.2822265625
 10
296.01220703125
 20
416.1279296875
 10
295.22705078125
 20
416.1279296875
 10
293.40673828125
 20
416.1279296875
 10
292.14599609375
 20
417.361328125
 10
292.14599609375
 20
419.322265625
 10
292.14599609375
 20
421.26904296875
 10
293.33642578125
 20
422.6279296875
 10
295.00341796875
 20
422.6279296875
 10
296.72607421875
 20
422.6279296875
 10
297.62255859375
 20
421.3955078125
 10
297.62255859375
 20
419.57421875
 10
297.62255859375
 20
419.57421875
 10
297.62255859375
 20
419.0703125
 10
297.62255859375
 20
419.0703125
 10
297.62255859375
 20
419.0703125
 10
293.50439453125
 20
419.0703125
 10
293.50439453125
 20
419.0703125
 97
        0
 92
        1
 93
        1
 72
     4
 94
        3
 73
     0
 74
     1
 95
       14
 96
       10
 40
0.0
 40
0.0
 40
0.0
 40
0.0
 40
1.0
 40
1.0
 40
1.0
 40
2.0
 40
2.0
 40
2.0
 40
3.0
 40
3.0
 40
3.0
 40
3.0
 10
293.58837890625
 20
420.134765625
 10
293.58837890625
 20
420.134765625
 10
296.29150390625
 20
420.134765625
 10
296.29150390625
 20
420.134765625
 10
296.24951171875
 20
420.89111328125
 10
295.81591796875
 20
421.451171875
 10
295.01708984375
 20
421.451171875
 10
294.40087890625
 20
421.451171875
 10
293.79833984375
 20
421.0869140625
 10
293.58837890625
 20
420.134765625
 97
        0
 75
     2
 76
     1
 98
        0
  0
SPLINE
  5
64
330
3C
100
AcDbEntity
  8
Layer 1
370
     0
100
AcDbSpline
210
0.0
220
0.0
230
1.0
 70
    11
 71
     3
 72
    35
 73
    31
 74
     0
 42
0.0000000001
 43
0.0000000001
 40
0.0
 40
0.0
 40
0.0
 40
0.0
 40
1.0
 40
1.0
 40
1.0
 40
2.0
 40
2.0
 40
2.0
 40
3.0
 40
3.0
 40
3.0
 40
4.0
 40
4.0
 40
4.0
 40
5.0
 40
5.0
 40
5.0
 40
6.0
 40
6.0
 40
6.0
 40
7.0
 40
7.0
 40
7.0
 40
8.0
 40
8.0
 40
8.0
 40
9.0
 40
9.0
 40
9.0
 40
10.0
 40
10.0
 40
10.0
 40
10.0
 10
302.423828125
 20
421.0732421875
 30
0.0
 10
302.2265625
 20
421.21337890625
 30
0.0
 10
301.890625
 20
421.283203125
 30
0.0
 10
301.595703125
 20
421.283203125
 30
0.0
 10
301.021484375
 20
421.283203125
 30
0.0
 10
300.490234375
 20
420.9609375
 30
0.0
 10
300.349609375
 20
420.28857421875
 30
0.0
 10
300.349609375
 20
420.28857421875
 30
0.0
 10
300.349609375
 20
416.2685546875
 30
0.0
 10
300.349609375
 20
416.2685546875
 30
0.0
 10
300.349609375
 20
416.2685546875
 30
0.0
 10
298.94873046875
 20
416.2685546875
 30
0.0
 10
298.94873046875
 20
416.2685546875
 30
0.0
 10
298.94873046875
 20
416.2685546875
 30
0.0
 10
298.94873046875
 20
422.48779296875
 30
0.0
 10
298.94873046875
 20
422.48779296875
 30
0.0
 10
298.94873046875
 20
422.48779296875
 30
0.0
 10
300.349609375
 20
422.48779296875
 30
0.0
 10
300.349609375
 20
422.48779296875
 30
0.0
 10
300.349609375
 20
422.48779296875
 30
0.0
 10
300.349609375
 20
421.84375
 30
0.0
 10
300.349609375
 20
421.84375
 30
0.0
 10
300.587890625
 20
422.3056640625
 30
0.0
 10
301.134765625
 20
422.6279296875
 30
0.0
 10
301.736328125
 20
422.6279296875
 30
0.0
 10
302.044921875
 20
422.6279296875
 30
0.0
 10
302.32421875
 20
422.57177734375
 30
0.0
 10
302.423828125
 20
422.51611328125
 30
0.0
 10
302.423828125
 20
422.51611328125
 30
0.0
 10
302.423828125
 20
421.0732421875
 30
0.0
 10
302.423828125
 20
421.0732421875
 30
0.0
  0
HATCH
  5
65
330
3C
100
AcDbEntity
  8
Layer 1
 62
     7
420
 16777215
100
AcDbHatch
 10
0.0
 20
0.0
 30
0.0
210
0.0
220
0.0
230
1.0
  2
SOLID
 70
     1
 71
     0
 91
        1
 92
        1
 93
        1
 72
     4
 94
        3
 73
     0
 74
     1
 95
       35
 96
       31
 40
0.0
 40
0.0
 40
0.0
 40
0.0
 40
1.0
 40
1.0
 40
1.0
 40
2.0
 40
2.0
 40
2.0
 40
3.0
 40
3.0
 40
3.0
 40
4.0
 40
4.0
 40
4.0
 40
5.0
 40
5.0
 40
5.0
 40
6.0
 40
6.0
 40
6.0
 40
7.0
 40
7.0
 40
7.0
 40
8.0
 40
8.0
 40
8.0
 40
9.0
 40
9.0
 40
9.0
 40
10.0
 40
10.0
 40
10.0
 40
10.0
 10
302.423828125
 20
421.0732421875
 10
302.2265625
 20
421.21337890625
 10
301.890625
 20
421.283203125
 10
301.595703125
 20
421.283203125
 10
301.021484375
 20
421.283203125
 10
300.490234375
 20
420.9609375
 10
300.349609375
 20
420.28857421875
 10
300.349609375
 20
420.28857421875
 10
300.349609375
 20
416.2685546875
 10
300.349609375
 20
416.2685546875
 10
300.349609375
 20
416.2685546875
 10
298.94873046875
 20
416.2685546875
 10
298.94873046875
 20
416.2685546875
 10
298.94873046875
 20
416.2685546875
 10
298.94873046875
 20
422.48779296875
 10
298.94873046875
 20
422.48779296875
 10
298.94873046875
 20
422.48779296875
 10
300.349609375
 20
422.48779296875
 10
300.349609375
 20
422.48779296875
 10
300.349609375
 20
422.48779296875
 10
300.349609375
 20
421.84375
 10
300.349609375
 20
421.84375
 10
300.587890625
 20
422.3056640625
 10
301.134765625
 20
422.6279296875
 10
301.736328125
 20
422.6279296875
 10
302.044921875
 20
422.6279296875
 10
302.32421875
 20
422.57177734375
 10
302.423828125
 20
422.51611328125
 10
302.423828125
 20
422.51611328125
 10
302.423828125
 20
421.0732421875
 10
302.423828125
 20
421.0732421875
 97
        0
 75
     2
 76
     1
 98
        0
  0
POLYLINE
  5
66
330
3C
100
AcDbEntity
  8
Layer 1
370
     0
100
AcDb2dPolyline
 66
     1
 10
0.0
 20
0.0
 30
0.0
  0
VERTEX
  5
67
330
66
100
AcDbEntity
  8
Layer 1
370
     0
100
AcDbVertex
100
AcDb2dVertex
 10
305.853515625
 20
416.2685546875
 30
0.0
  0
VERTEX
  5
68
330
66
100
AcDbEntity
  8
Layer 1
370
     0
100
AcDbVertex
100
AcDb2dVertex
 10
304.453125
 20
416.2685546875
 30
0.0
  0
VERTEX
  5
69
330
66
100
AcDbEntity
  8
Layer 1
370
     0
100
AcDbVertex
100
AcDb2dVertex
 10
304.453125
 20
421.3251953125
 30
0.0
  0
VERTEX
  5
6A
330
66
100
AcDbEntity
  8
Layer 1
370
     0
100
AcDbVertex
100
AcDb2dVertex
 10
303.19140625
 20
421.3251953125
 30
0.0
  0
VERTEX
  5
6B
330
66
100
AcDbEntity
  8
Layer 1
370
     0
100
AcDbVertex
100
AcDb2dVertex
 10
303.19140625
 20
422.48779296875
 30
0.0
  0
VERTEX
  5
6C
330
66
100
AcDbEntity
  8
Layer 1
370
     0
100
AcDbVertex
100
AcDb2dVertex
 10
304.453125
 20
422.48779296875
 30
0.0
  0
VERTEX
  5
6D
330
66
100
AcDbEntity
  8
Layer 1
370
     0
100
AcDbVertex
100
AcDb2dVertex
 10
304.453125
 20
424.15478515625
 30
0.0
  0
VERTEX
  5
6E
330
66
100
AcDbEntity
  8
Layer 1
370
     0
100
AcDbVertex
100
AcDb2dVertex
 10
305.853515625
 20
424.15478515625
 30
0.0
  0
VERTEX
  5
6F
330
66
100
AcDbEntity
  8
Layer 1
370
     0
100
AcDbVertex
100
AcDb2dVertex
 10
305.853515625
 20
422.48779296875
 30
0.0
  0
VERTEX
  5
70
330
66
100
AcDbEntity
  8
Layer 1
370
     0
100
AcDbVertex
100
AcDb2dVertex
 10
307.25390625
 20
422.48779296875
 30
0.0
  0
VERTEX
  5
71
330
66
100
AcDbEntity
  8
Layer 1
370
     0
100
AcDbVertex
100
AcDb2dVertex
 10
307.25390625
 20
421.3251953125
 30
0.0
  0
VERTEX
  5
72
330
66
100
AcDbEntity
  8
Layer 1
370
     0
100
AcDbVertex
100
AcDb2dVertex
 10
305.853515625
 20
421.3251953125
 30
0.0
  0
VERTEX
  5
73
330
66
100
AcDbEntity
  8
Layer 1
370
     0
100
AcDbVertex
100
AcDb2dVertex
 10
305.853515625
 20
416.2685546875
 30
0.0
  0
SEQEND
  5
74
330
66
100
AcDbEntity
  8
Layer 1
370
     0
  0
HATCH
  5
75
330
3C
100
AcDbEntity
  8
Layer 1
 62
     7
420
 16777215
100
AcDbHatch
 10
0.0
 20
0.0
 30
0.0
210
0.0
220
0.0
230
1.0
  2
SOLID
 70
     1
 71
     0
 91
        1
 92
        1
 93
       12
 72
     1
 10
305.853515625
 20
416.2685546875
 11
304.453125
 21
416.2685546875
 72
     1
 10
304.453125
 20
416.2685546875
 11
304.453125
 21
421.3251953125
 72
     1
 10
304.453125
 20
421.3251953125
 11
303.19140625
 21
421.3251953125
 72
     1
 10
303.19140625
 20
421.3251953125
 11
303.19140625
 21
422.48779296875
 72
     1
 10
303.19140625
 20
422.48779296875
 11
304.453125
 21
422.48779296875
 72
     1
 10
304.453125
 20
422.48779296875
 11
304.453125
 21
424.15478515625
 72
     1
 10
304.453125
 20
424.15478515625
 11
305.853515625
 21
424.15478515625
 72
     1
 10
305.853515625
 20
424.15478515625
 11
305.853515625
 21
422.48779296875
 72
     1
 10
305.853515625
 20
422.48779296875
 11
307.25390625
 21
422.48779296875
 72
     1
 10
307.25390625
 20
422.48779296875
 11
307.25390625
 21
421.3251953125
 72
     1
 10
307.25390625
 20
421.3251953125
 11
305.853515625
 21
421.3251953125
 72
     1
 10
305.853515625
 20
421.3251953125
 11
305.853515625
 21
416.2685546875
 97
        0
 75
     2
 76
     1
 98
        0
  0
SPLINE
  5
76
330
3C
100
AcDbEntity
  8
Layer 1
370
     0
100
AcDbSpline
210
0.0
220
0.0
230
1.0
 70
    11
 71
     3
 72
    35
 73
    31
 74
     0
 42
0.0000000001
 43
0.0000000001
 40
0.0
 40
0.0
 40
0.0
 40
0.0
 40
1.0
 40
1.0
 40
1.0
 40
2.0
 40
2.0
 40
2.0
 40
3.0
 40
3.0
 40
3.0
 40
4.0
 40
4.0
 40
4.0
 40
5.0
 40
5.0
 40
5.0
 40
6.0
 40
6.0
 40
6.0
 40
7.0
 40
7.0
 40
7.0
 40
8.0
 40
8.0
 40
8.0
 40
9.0
 40
9.0
 40
9.0
 40
10.0
 40
10.0
 40
10.0
 40
10.0
 10
311.95703125
 20
421.0732421875
 30
0.0
 10
311.76171875
 20
421.21337890625
 30
0.0
 10
311.42578125
 20
421.283203125
 30
0.0
 10
311.130859375
 20
421.283203125
 30
0.0
 10
310.556640625
 20
421.283203125
 30
0.0
 10
310.0234375
 20
420.9609375
 30
0.0
 10
309.884765625
 20
420.28857421875
 30
0.0
 10
309.884765625
 20
420.28857421875
 30
0.0
 10
309.884765625
 20
416.2685546875
 30
0.0
 10
309.884765625
 20
416.2685546875
 30
0.0
 10
309.884765625
 20
416.2685546875
 30
0.0
 10
308.482421875
 20
416.2685546875
 30
0.0
 10
308.482421875
 20
416.2685546875
 30
0.0
 10
308.482421875
 20
416.2685546875
 30
0.0
 10
308.482421875
 20
422.48779296875
 30
0.0
 10
308.482421875
 20
422.48779296875
 30
0.0
 10
308.482421875
 20
422.48779296875
 30
0.0
 10
309.884765625
 20
422.48779296875
 30
0.0
 10
309.884765625
 20
422.48779296875
 30
0.0
 10
309.884765625
 20
422.48779296875
 30
0.0
 10
309.884765625
 20
421.84375
 30
0.0
 10
309.884765625
 20
421.84375
 30
0.0
 10
310.123046875
 20
422.3056640625
 30
0.0
 10
310.66796875
 20
422.6279296875
 30
0.0
 10
311.271484375
 20
422.6279296875
 30
0.0
 10
311.578125
 20
422.6279296875
 30
0.0
 10
311.859375
 20
422.57177734375
 30
0.0
 10
311.95703125
 20
422.51611328125
 30
0.0
 10
311.95703125
 20
422.51611328125
 30
0.0
 10
311.95703125
 20
421.0732421875
 30
0.0
 10
311.95703125
 20
421.0732421875
 30
0.0
  0
HATCH
  5
77
330
3C
100
AcDbEntity
  8
Layer 1
 62
     7
420
 16777215
100
AcDbHatch
 10
0.0
 20
0.0
 30
0.0
210
0.0
220
0.0
230
1.0
  2
SOLID
 70
     1
 71
     0
 91
        1
 92
        1
 93
        1
 72
     4
 94
        3
 73
     0
 74
     1
 95
       35
 96
       31
 40
0.0
 40
0.0
 40
0.0
 40
0.0
 40
1.0
 40
1.0
 40
1.0
 40
2.0
 40
2.0
 40
2.0
 40
3.0
 40
3.0
 40
3.0
 40
4.0
 40
4.0
 40
4.0
 40
5.0
 40
5.0
 40
5.0
 40
6.0
 40
6.0
 40
6.0
 40
7.0
 40
7.0
 40
7.0
 40
8.0
 40
8.0
 40
8.0
 40
9.0
 40
9.0
 40
9.0
 40
10.0
 40
10.0
 40
10.0
 40
10.0
 10
311.95703125
 20
421.0732421875
 10
311.76171875
 20
421.21337890625
 10
311.42578125
 20
421.283203125
 10
311.130859375
 20
421.283203125
 10
310.556640625
 20
421.283203125
 10
310.0234375
 20
420.9609375
 10
309.884765625
 20
420.28857421875
 10
309.884765625
 20
420.28857421875
 10
309.884765625
 20
416.2685546875
 10
309.884765625
 20
416.2685546875
 10
309.884765625
 20
416.2685546875
 10
308.482421875
 20
416.2685546875
 10
308.482421875
 20
416.2685546875
 10
308.482421875
 20
416.2685546875
 10
308.482421875
 20
422.48779296875
 10
308.482421875
 20
422.48779296875
 10
308.482421875
 20
422.48779296875
 10
309.884765625
 20
422.48779296875
 10
309.884765625
 20
422.48779296875
 10
309.884765625
 20
422.48779296875
 10
309.884765625
 20
421.84375
 10
309.884765625
 20
421.84375
 10
310.123046875
 20
422.3056640625
 10
310.66796875
 20
422.6279296875
 10
311.271484375
 20
422.6279296875
 10
311.578125
 20
422.6279296875
 10
311.859375
 20
422.57177734375
 10
311.95703125
 20
422.51611328125
 10
311.95703125
 20
422.51611328125
 10
311.95703125
 20
421.0732421875
 10
311.95703125
 20
421.0732421875
 97
        0
 75
     2
 76
     1
 98
        0
  0
SPLINE
  5
78
330
3C
100
AcDbEntity
  8
Layer 1
370
     0
100
AcDbSpline
210
0.0
220
0.0
230
1.0
 70
    11
 71
     3
 72
    44
 73
    40
 74
     0
 42
0.0000000001
 43
0.0000000001
 40
0.0
 40
0.0
 40
0.0
 40
0.0
 40
1.0
 40
1.0
 40
1.0
 40
2.0
 40
2.0
 40
2.0
 40
3.0
 40
3.0
 40
3.0
 40
4.0
 40
4.0
 40
4.0
 40
5.0
 40
5.0
 40
5.0
 40
6.0
 40
6.0
 40
6.0
 40
7.0
 40
7.0
 40
7.0
 40
8.0
 40
8.0
 40
8.0
 40
9.0
 40
9.0
 40
9.0
 40
10.0
 40
10.0
 40
10.0
 40
11.0
 40
11.0
 40
11.0
 40
12.0
 40
12.0
 40
12.0
 40
13.0
 40
13.0
 40
13.0
 40
13.0
 10
316.478515625
 20
420.24658203125
 30
0.0
 10
316.478515625
 20
420.947265625
 30
0.0
 10
315.91796875
 20
421.353515625
 30
0.0
 10
315.05078125
 20
421.353515625
 30
0.0
 10
314.376953125
 20
421.353515625
 30
0.0
 10
313.83203125
 20
421.14306640625
 30
0.0
 10
313.328125
 20
420.80712890625
 30
0.0
 10
313.328125
 20
420.80712890625
 30
0.0
 10
313.328125
 20
422.095703125
 30
0.0
 10
313.328125
 20
422.095703125
 30
0.0
 10
313.734375
 20
422.3896484375
 30
0.0
 10
314.517578125
 20
422.6279296875
 30
0.0
 10
315.302734375
 20
422.6279296875
 30
0.0
 10
316.9140625
 20
422.6279296875
 30
0.0
 10
317.82421875
 20
421.759765625
 30
0.0
 10
317.82421875
 20
420.3447265625
 30
0.0
 10
317.82421875
 20
420.3447265625
 30
0.0
 10
317.82421875
 20
416.2685546875
 30
0.0
 10
317.82421875
 20
416.2685546875
 30
0.0
 10
317.82421875
 20
416.2685546875
 30
0.0
 10
316.478515625
 20
416.2685546875
 30
0.0
 10
316.478515625
 20
416.2685546875
 30
0.0
 10
316.478515625
 20
416.2685546875
 30
0.0
 10
316.478515625
 20
416.6181640625
 30
0.0
 10
316.478515625
 20
416.6181640625
 30
0.0
 10
316.26953125
 20
416.4091796875
 30
0.0
 10
315.65234375
 20
416.15625
 30
0.0
 10
314.951171875
 20
416.15625
 30
0.0
 10
313.677734375
 20
416.15625
 30
0.0
 10
312.626953125
 20
416.9130859375
 30
0.0
 10
312.626953125
 20
418.1875
 30
0.0
 10
312.626953125
 20
419.3642578125
 30
0.0
 10
313.677734375
 20
420.1904296875
 30
0.0
 10
315.05078125
 20
420.1904296875
 30
0.0
 10
315.611328125
 20
420.1904296875
 30
0.0
 10
316.2265625
 20
419.99462890625
 30
0.0
 10
316.478515625
 20
419.8125
 30
0.0
 10
316.478515625
 20
419.8125
 30
0.0
 10
316.478515625
 20
420.24658203125
 30
0.0
 10
316.478515625
 20
420.24658203125
 30
0.0
  0
SPLINE
  5
79
330
3C
100
AcDbEntity
  8
Layer 1
370
     0
100
AcDbSpline
210
0.0
220
0.0
230
1.0
 70
    11
 71
     3
 72
    20
 73
    16
 74
     0
 42
0.0000000001
 43
0.0000000001
 40
0.0
 40
0.0
 40
0.0
 40
0.0
 40
1.0
 40
1.0
 40
1.0
 40
2.0
 40
2.0
 40
2.0
 40
3.0
 40
3.0
 40
3.0
 40
4.0
 40
4.0
 40
4.0
 40
5.0
 40
5.0
 40
5.0
 40
5.0
 10
316.478515625
 20
418.4404296875
 30
0.0
 10
316.32421875
 20
418.83203125
 30
0.0
 10
315.779296875
 20
419.0703125
 30
0.0
 10
315.21875
 20
419.0703125
 30
0.0
 10
314.587890625
 20
419.0703125
 30
0.0
 10
313.9296875
 20
418.8037109375
 30
0.0
 10
313.9296875
 20
418.1875
 30
0.0
 10
313.9296875
 20
417.5576171875
 30
0.0
 10
314.587890625
 20
417.291015625
 30
0.0
 10
315.21875
 20
417.291015625
 30
0.0
 10
315.779296875
 20
417.291015625
 30
0.0
 10
316.32421875
 20
417.529296875
 30
0.0
 10
316.478515625
 20
417.9208984375
 30
0.0
 10
316.478515625
 20
417.9208984375
 30
0.0
 10
316.478515625
 20
418.4404296875
 30
0.0
 10
316.478515625
 20
418.4404296875
 30
0.0
  0
HATCH
  5
7A
330
3C
100
AcDbEntity
  8
Layer 1
 62
     7
420
 16777215
100
AcDbHatch
 10
0.0
 20
0.0
 30
0.0
210
0.0
220
0.0
230
1.0
  2
SOLID
 70
     1
 71
     0
 91
        2
 92
        1
 93
        1
 72
     4
 94
        3
 73
     0
 74
     1
 95
       44
 96
       40
 40
0.0
 40
0.0
 40
0.0
 40
0.0
 40
1.0
 40
1.0
 40
1.0
 40
2.0
 40
2.0
 40
2.0
 40
3.0
 40
3.0
 40
3.0
 40
4.0
 40
4.0
 40
4.0
 40
5.0
 40
5.0
 40
5.0
 40
6.0
 40
6.0
 40
6.0
 40
7.0
 40
7.0
 40
7.0
 40
8.0
 40
8.0
 40
8.0
 40
9.0
 40
9.0
 40
9.0
 40
10.0
 40
10.0
 40
10.0
 40
11.0
 40
11.0
 40
11.0
 40
12.0
 40
12.0
 40
12.0
 40
13.0
 40
13.0
 40
13.0
 40
13.0
 10
316.478515625
 20
420.24658203125
 10
316.478515625
 20
420.947265625
 10
315.91796875
 20
421.353515625
 10
315.05078125
 20
421.353515625
 10
314.376953125
 20
421.353515625
 10
313.83203125
 20
421.14306640625
 10
313.328125
 20
420.80712890625
 10
313.328125
 20
420.80712890625
 10
313.328125
 20
422.095703125
 10
313.328125
 20
422.095703125
 10
313.734375
 20
422.3896484375
 10
314.517578125
 20
422.6279296875
 10
315.302734375
 20
422.6279296875
 10
316.9140625
 20
422.6279296875
 10
317.82421875
 20
421.759765625
 10
317.82421875
 20
420.3447265625
 10
317.82421875
 20
420.3447265625
 10
317.82421875
 20
416.2685546875
 10
317.82421875
 20
416.2685546875
 10
317.82421875
 20
416.2685546875
 10
316.478515625
 20
416.2685546875
 10
316.478515625
 20
416.2685546875
 10
316.478515625
 20
416.2685546875
 10
316.478515625
 20
416.6181640625
 10
316.478515625
 20
416.6181640625
 10
316.26953125
 20
416.4091796875
 10
315.65234375
 20
416.15625
 10
314.951171875
 20
416.15625
 10
313.677734375
 20
416.15625
 10
312.626953125
 20
416.9130859375
 10
312.626953125
 20
418.1875
 10
312.626953125
 20
419.3642578125
 10
313.677734375
 20
420.1904296875
 10
315.05078125
 20
420.1904296875
 10
315.611328125
 20
420.1904296875
 10
316.2265625
 20
419.99462890625
 10
316.478515625
 20
419.8125
 10
316.478515625
 20
419.8125
 10
316.478515625
 20
420.24658203125
 10
316.478515625
 20
420.24658203125
 97
        0
 92
        1
 93
        1
 72
     4
 94
        3
 73
     0
 74
     1
 95
       20
 96
       16
 40
0.0
 40
0.0
 40
0.0
 40
0.0
 40
1.0
 40
1.0
 40
1.0
 40
2.0
 40
2.0
 40
2.0
 40
3.0
 40
3.0
 40
3.0
 40
4.0
 40
4.0
 40
4.0
 40
5.0
 40
5.0
 40
5.0
 40
5.0
 10
316.478515625
 20
418.4404296875
 10
316.32421875
 20
418.83203125
 10
315.779296875
 20
419.0703125
 10
315.21875
 20
419.0703125
 10
314.587890625
 20
419.0703125
 10
313.9296875
 20
418.8037109375
 10
313.9296875
 20
418.1875
 10
313.9296875
 20
417.5576171875
 10
314.587890625
 20
417.291015625
 10
315.21875
 20
417.291015625
 10
315.779296875
 20
417.291015625
 10
316.32421875
 20
417.529296875
 10
316.478515625
 20
417.9208984375
 10
316.478515625
 20
417.9208984375
 10
316.478515625
 20
418.4404296875
 10
316.478515625
 20
418.4404296875
 97
        0
 75
     2
 76
     1
 98
        0
  0
SPLINE
  5
7B
330
3C
100
AcDbEntity
  8
Layer 1
370
     0
100
AcDbSpline
210
0.0
220
0.0
230
1.0
 70
    11
 71
     3
 72
    32
 73
    28
 74
     0
 42
0.0000000001
 43
0.0000000001
 40
0.0
 40
0.0
 40
0.0
 40
0.0
 40
1.0
 40
1.0
 40
1.0
 40
2.0
 40
2.0
 40
2.0
 40
3.0
 40
3.0
 40
3.0
 40
4.0
 40
4.0
 40
4.0
 40
5.0
 40
5.0
 40
5.0
 40
6.0
 40
6.0
 40
6.0
 40
7.0
 40
7.0
 40
7.0
 40
8.0
 40
8.0
 40
8.0
 40
9.0
 40
9.0
 40
9.0
 40
9.0
 10
320.875
 20
413.8876953125
 30
0.0
 10
320.875
 20
413.8876953125
 30
0.0
 10
319.47265625
 20
413.8876953125
 30
0.0
 10
319.47265625
 20
413.8876953125
 30
0.0
 10
319.47265625
 20
413.8876953125
 30
0.0
 10
319.47265625
 20
422.48779296875
 30
0.0
 10
319.47265625
 20
422.48779296875
 30
0.0
 10
319.47265625
 20
422.48779296875
 30
0.0
 10
320.875
 20
422.48779296875
 30
0.0
 10
320.875
 20
422.48779296875
 30
0.0
 10
320.875
 20
422.48779296875
 30
0.0
 10
320.875
 20
421.95556640625
 30
0.0
 10
320.875
 20
421.95556640625
 30
0.0
 10
321.154296875
 20
422.3056640625
 30
0.0
 10
321.771484375
 20
422.6279296875
 30
0.0
 10
322.45703125
 20
422.6279296875
 30
0.0
 10
324.27734375
 20
422.6279296875
 30
0.0
 10
325.341796875
 20
421.115234375
 30
0.0
 10
325.341796875
 20
419.3779296875
 30
0.0
 10
325.341796875
 20
417.6416015625
 30
0.0
 10
324.27734375
 20
416.1279296875
 30
0.0
 10
322.45703125
 20
416.1279296875
 30
0.0
 10
321.771484375
 20
416.1279296875
 30
0.0
 10
321.154296875
 20
416.4501953125
 30
0.0
 10
320.875
 20
416.80078125
 30
0.0
 10
320.875
 20
416.80078125
 30
0.0
 10
320.875
 20
413.8876953125
 30
0.0
 10
320.875
 20
413.8876953125
 30
0.0
  0
SPLINE
  5
7C
330
3C
100
AcDbEntity
  8
Layer 1
370
     0
100
AcDbSpline
210
0.0
220
0.0
230
1.0
 70
    11
 71
     3
 72
    20
 73
    16
 74
     0
 42
0.0000000001
 43
0.0000000001
 40
0.0
 40
0.0
 40
0.0
 40
0.0
 40
1.0
 40
1.0
 40
1.0
 40
2.0
 40
2.0
 40
2.0
 40
3.0
 40
3.0
 40
3.0
 40
4.0
 40
4.0
 40
4.0
 40
5.0
 40
5.0
 40
5.0
 40
5.0
 10
320.875
 20
418.2021484375
 30
0.0
 10
321.11328125
 20
417.7119140625
 30
0.0
 10
321.64453125
 20
417.375
 30
0.0
 10
322.21875
 20
417.375
 30
0.0
 10
323.296875
 20
417.375
 30
0.0
 10
323.94140625
 20
418.2294921875
 30
0.0
 10
323.94140625
 20
419.3779296875
 30
0.0
 10
323.94140625
 20
420.52685546875
 30
0.0
 10
323.296875
 20
421.38134765625
 30
0.0
 10
322.21875
 20
421.38134765625
 30
0.0
 10
321.64453125
 20
421.38134765625
 30
0.0
 10
321.11328125
 20
421.044921875
 30
0.0
 10
320.875
 20
420.5546875
 30
0.0
 10
320.875
 20
420.5546875
 30
0.0
 10
320.875
 20
418.2021484375
 30
0.0
 10
320.875
 20
418.2021484375
 30
0.0
  0
HATCH
  5
7D
330
3C
100
AcDbEntity
  8
Layer 1
 62
     7
420
 16777215
100
AcDbHatch
 10
0.0
 20
0.0
 30
0.0
210
0.0
220
0.0
230
1.0
  2
SOLID
 70
     1
 71
     0
 91
        2
 92
        1
 93
        1
 72
     4
 94
        3
 73
     0
 74
     1
 95
       32
 96
       28
 40
0.0
 40
0.0
 40
0.0
 40
0.0
 40
1.0
 40
1.0
 40
1.0
 40
2.0
 40
2.0
 40
2.0
 40
3.0
 40
3.0
 40
3.0
 40
4.0
 40
4.0
 40
4.0
 40
5.0
 40
5.0
 40
5.0
 40
6.0
 40
6.0
 40
6.0
 40
7.0
 40
7.0
 40
7.0
 40
8.0
 40
8.0
 40
8.0
 40
9.0
 40
9.0
 40
9.0
 40
9.0
 10
320.875
 20
413.8876953125
 10
320.875
 20
413.8876953125
 10
319.47265625
 20
413.8876953125
 10
319.47265625
 20
413.8876953125
 10
319.47265625
 20
413.8876953125
 10
319.47265625
 20
422.48779296875
 10
319.47265625
 20
422.48779296875
 10
319.47265625
 20
422.48779296875
 10
320.875
 20
422.48779296875
 10
320.875
 20
422.48779296875
 10
320.875
 20
422.48779296875
 10
320.875
 20
421.95556640625
 10
320.875
 20
421.95556640625
 10
321.154296875
 20
422.3056640625
 10
321.771484375
 20
422.6279296875
 10
322.45703125
 20
422.6279296875
 10
324.27734375
 20
422.6279296875
 10
325.341796875
 20
421.115234375
 10
325.341796875
 20
419.3779296875
 10
325.341796875
 20
417.6416015625
 10
324.27734375
 20
416.1279296875
 10
322.45703125
 20
416.1279296875
 10
321.771484375
 20
416.1279296875
 10
321.154296875
 20
416.4501953125
 10
320.875
 20
416.80078125
 10
320.875
 20
416.80078125
 10
320.875
 20
413.8876953125
 10
320.875
 20
413.8876953125
 97
        0
 92
        1
 93
        1
 72
     4
 94
        3
 73
     0
 74
     1
 95
       20
 96
       16
 40
0.0
 40
0.0
 40
0.0
 40
0.0
 40
1.0
 40
1.0
 40
1.0
 40
2.0
 40
2.0
 40
2.0
 40
3.0
 40
3.0
 40
3.0
 40
4.0
 40
4.0
 40
4.0
 40
5.0
 40
5.0
 40
5.0
 40
5.0
 10
320.875
 20
418.2021484375
 10
321.11328125
 20
417.7119140625
 10
321.64453125
 20
417.375
 10
322.21875
 20
417.375
 10
323.296875
 20
417.375
 10
323.94140625
 20
418.2294921875
 10
323.94140625
 20
419.3779296875
 10
323.94140625
 20
420.52685546875
 10
323.296875
 20
421.38134765625
 10
322.21875
 20
421.38134765625
 10
321.64453125
 20
421.38134765625
 10
321.11328125
 20
421.044921875
 10
320.875
 20
420.5546875
 10
320.875
 20
420.5546875
 10
320.875
 20
418.2021484375
 10
320.875
 20
418.2021484375
 97
        0
 75
     2
 76
     1
 98
        0
  0
POLYLINE
  5
7E
330
3C
100
AcDbEntity
  8
Layer 1
370
     0
100
AcDb2dPolyline
 66
     1
 10
0.0
 20
0.0
 30
0.0
  0
VERTEX
  5
7F
330
7E
100
AcDbEntity
  8
Layer 1
370
     0
100
AcDbVertex
100
AcDb2dVertex
 10
329.818359375
 20
424.869140625
 30
0.0
  0
VERTEX
  5
80
330
7E
100
AcDbEntity
  8
Layer 1
370
     0
100
AcDbVertex
100
AcDb2dVertex
 10
331.275390625
 20
424.869140625
 30
0.0
  0
VERTEX
  5
81
330
7E
100
AcDbEntity
  8
Layer 1
370
     0
100
AcDbVertex
100
AcDb2dVertex
 10
331.275390625
 20
417.5712890625
 30
0.0
  0
VERTEX
  5
82
330
7E
100
AcDbEntity
  8
Layer 1
370
     0
100
AcDbVertex
100
AcDb2dVertex
 10
335.408203125
 20
417.5712890625
 30
0.0
  0
VERTEX
  5
83
330
7E
100
AcDbEntity
  8
Layer 1
370
     0
100
AcDbVertex
100
AcDb2dVertex
 10
335.408203125
 20
416.2685546875
 30
0.0
  0
VERTEX
  5
84
330
7E
100
AcDbEntity
  8
Layer 1
370
     0
100
AcDbVertex
100
AcDb2dVertex
 10
329.818359375
 20
416.2685546875
 30
0.0
  0
VERTEX
  5
85
330
7E
100
AcDbEntity
  8
Layer 1
370
     0
100
AcDbVertex
100
AcDb2dVertex
 10
329.818359375
 20
424.869140625
 30
0.0
  0
SEQEND
  5
86
330
7E
100
AcDbEntity
  8
Layer 1
370
     0
  0
HATCH
  5
87
330
3C
100
AcDbEntity
  8
Layer 1
 62
     7
420
 16777215
100
AcDbHatch
 10
0.0
 20
0.0
 30
0.0
210
0.0
220
0.0
230
1.0
  2
SOLID
 70
     1
 71
     0
 91
        1
 92
        1
 93
        6
 72
     1
 10
329.818359375
 20
424.869140625
 11
331.275390625
 21
424.869140625
 72
     1
 10
331.275390625
 20
424.869140625
 11
331.275390625
 21
417.5712890625
 72
     1
 10
331.275390625
 20
417.5712890625
 11
335.408203125
 21
417.5712890625
 72
     1
 10
335.408203125
 20
417.5712890625
 11
335.408203125
 21
416.2685546875
 72
     1
 10
335.408203125
 20
416.2685546875
 11
329.818359375
 21
416.2685546875
 72
     1
 10
329.818359375
 20
416.2685546875
 11
329.818359375
 21
424.869140625
 97
        0
 75
     2
 76
     1
 98
        0
  0
POLYLINE
  5
88
330
3C
100
AcDbEntity
  8
Layer 1
370
     0
100
AcDb2dPolyline
 66
     1
 10
0.0
 20
0.0
 30
0.0
  0
VERTEX
  5
89
330
88
100
AcDbEntity
  8
Layer 1
370
     0
100
AcDbVertex
100
AcDb2dVertex
 10
338.52734375
 20
416.2685546875
 30
0.0
  0
VERTEX
  5
8A
330
88
100
AcDbEntity
  8
Layer 1
370
     0
100
AcDbVertex
100
AcDb2dVertex
 10
337.126953125
 20
416.2685546875
 30
0.0
  0
VERTEX
  5
8B
330
88
100
AcDbEntity
  8
Layer 1
370
     0
100
AcDbVertex
100
AcDb2dVertex
 10
337.126953125
 20
421.3251953125
 30
0.0
  0
VERTEX
  5
8C
330
88
100
AcDbEntity
  8
Layer 1
370
     0
100
AcDbVertex
100
AcDb2dVertex
 10
335.8671875
 20
421.3251953125
 30
0.0
  0
VERTEX
  5
8D
330
88
100
AcDbEntity
  8
Layer 1
370
     0
100
AcDbVertex
100
AcDb2dVertex
 10
335.8671875
 20
422.48779296875
 30
0.0
  0
VERTEX
  5
8E
330
88
100
AcDbEntity
  8
Layer 1
370
     0
100
AcDbVertex
100
AcDb2dVertex
 10
337.126953125
 20
422.48779296875
 30
0.0
  0
VERTEX
  5
8F
330
88
100
AcDbEntity
  8
Layer 1
370
     0
100
AcDbVertex
100
AcDb2dVertex
 10
337.126953125
 20
424.15478515625
 30
0.0
  0
VERTEX
  5
90
330
88
100
AcDbEntity
  8
Layer 1
370
     0
100
AcDbVertex
100
AcDb2dVertex
 10
338.52734375
 20
424.15478515625
 30
0.0
  0
VERTEX
  5
91
330
88
100
AcDbEntity
  8
Layer 1
370
     0
100
AcDbVertex
100
AcDb2dVertex
 10
338.52734375
 20
422.48779296875
 30
0.0
  0
VERTEX
  5
92
330
88
100
AcDbEntity
  8
Layer 1
370
     0
100
AcDbVertex
100
AcDb2dVertex
 10
339.927734375
 20
422.48779296875
 30
0.0
  0
VERTEX
  5
93
330
88
100
AcDbEntity
  8
Layer 1
370
     0
100
AcDbVertex
100
AcDb2dVertex
 10
339.927734375
 20
421.3251953125
 30
0.0
  0
VERTEX
  5
94
330
88
100
AcDbEntity
  8
Layer 1
370
     0
100
AcDbVertex
100
AcDb2dVertex
 10
338.52734375
 20
421.3251953125
 30
0.0
  0
VERTEX
  5
95
330
88
100
AcDbEntity
  8
Layer 1
370
     0
100
AcDbVertex
100
AcDb2dVertex
 10
338.52734375
 20
416.2685546875
 30
0.0
  0
SEQEND
  5
96
330
88
100
AcDbEntity
  8
Layer 1
370
     0
  0
HATCH
  5
97
330
3C
100
AcDbEntity
  8
Layer 1
 62
     7
420
 16777215
100
AcDbHatch
 10
0.0
 20
0.0
 30
0.0
210
0.0
220
0.0
230
1.0
  2
SOLID
 70
     1
 71
     0
 91
        1
 92
        1
 93
       12
 72
     1
 10
338.52734375
 20
416.2685546875
 11
337.126953125
 21
416.2685546875
 72
     1
 10
337.126953125
 20
416.2685546875
 11
337.126953125
 21
421.3251953125
 72
     1
 10
337.126953125
 20
421.3251953125
 11
335.8671875
 21
421.3251953125
 72
     1
 10
335.8671875
 20
421.3251953125
 11
335.8671875
 21
422.48779296875
 72
     1
 10
335.8671875
 20
422.48779296875
 11
337.126953125
 21
422.48779296875
 72
     1
 10
337.126953125
 20
422.48779296875
 11
337.126953125
 21
424.15478515625
 72
     1
 10
337.126953125
 20
424.15478515625
 11
338.52734375
 21
424.15478515625
 72
     1
 10
338.52734375
 20
424.15478515625
 11
338.52734375
 21
422.48779296875
 72
     1
 10
338.52734375
 20
422.48779296875
 11
339.927734375
 21
422.48779296875
 72
     1
 10
339.927734375
 20
422.48779296875
 11
339.927734375
 21
421.3251953125
 72
     1
 10
339.927734375
 20
421.3251953125
 11
338.52734375
 21
421.3251953125
 72
     1
 10
338.52734375
 20
421.3251953125
 11
338.52734375
 21
416.2685546875
 97
        0
 75
     2
 76
     1
 98
        0
  0
SPLINE
  5
98
330
3C
100
AcDbEntity
  8
Layer 1
370
     0
100
AcDbSpline
210
0.0
220
0.0
230
1.0
 70
    11
 71
     3
 72
    32
 73
    28
 74
     0
 42
0.0000000001
 43
0.0000000001
 40
0.0
 40
0.0
 40
0.0
 40
0.0
 40
1.0
 40
1.0
 40
1.0
 40
2.0
 40
2.0
 40
2.0
 40
3.0
 40
3.0
 40
3.0
 40
4.0
 40
4.0
 40
4.0
 40
5.0
 40
5.0
 40
5.0
 40
6.0
 40
6.0
 40
6.0
 40
7.0
 40
7.0
 40
7.0
 40
8.0
 40
8.0
 40
8.0
 40
9.0
 40
9.0
 40
9.0
 40
9.0
 10
345.052734375
 20
416.80078125
 30
0.0
 10
344.771484375
 20
416.4501953125
 30
0.0
 10
344.15625
 20
416.1279296875
 30
0.0
 10
343.46875
 20
416.1279296875
 30
0.0
 10
341.6484375
 20
416.1279296875
 30
0.0
 10
340.583984375
 20
417.5849609375
 30
0.0
 10
340.583984375
 20
419.3779296875
 30
0.0
 10
340.583984375
 20
421.1572265625
 30
0.0
 10
341.6484375
 20
422.6279296875
 30
0.0
 10
343.46875
 20
422.6279296875
 30
0.0
 10
344.15625
 20
422.6279296875
 30
0.0
 10
344.771484375
 20
422.3056640625
 30
0.0
 10
345.052734375
 20
421.95556640625
 30
0.0
 10
345.052734375
 20
421.95556640625
 30
0.0
 10
345.052734375
 20
425.37353515625
 30
0.0
 10
345.052734375
 20
425.37353515625
 30
0.0
 10
345.052734375
 20
425.37353515625
 30
0.0
 10
346.453125
 20
425.37353515625
 30
0.0
 10
346.453125
 20
425.37353515625
 30
0.0
 10
346.453125
 20
425.37353515625
 30
0.0
 10
346.453125
 20
416.2685546875
 30
0.0
 10
346.453125
 20
416.2685546875
 30
0.0
 10
346.453125
 20
416.2685546875
 30
0.0
 10
345.052734375
 20
416.2685546875
 30
0.0
 10
345.052734375
 20
416.2685546875
 30
0.0
 10
345.052734375
 20
416.2685546875
 30
0.0
 10
345.052734375
 20
416.80078125
 30
0.0
 10
345.052734375
 20
416.80078125
 30
0.0
  0
SPLINE
  5
99
330
3C
100
AcDbEntity
  8
Layer 1
370
     0
100
AcDbSpline
210
0.0
220
0.0
230
1.0
 70
    11
 71
     3
 72
    20
 73
    16
 74
     0
 42
0.0000000001
 43
0.0000000001
 40
0.0
 40
0.0
 40
0.0
 40
0.0
 40
1.0
 40
1.0
 40
1.0
 40
2.0
 40
2.0
 40
2.0
 40
3.0
 40
3.0
 40
3.0
 40
4.0
 40
4.0
 40
4.0
 40
5.0
 40
5.0
 40
5.0
 40
5.0
 10
345.052734375
 20
420.5546875
 30
0.0
 10
344.814453125
 20
421.044921875
 30
0.0
 10
344.28125
 20
421.38134765625
 30
0.0
 10
343.70703125
 20
421.38134765625
 30
0.0
 10
342.62890625
 20
421.38134765625
 30
0.0
 10
341.984375
 20
420.52685546875
 30
0.0
 10
341.984375
 20
419.3779296875
 30
0.0
 10
341.984375
 20
418.2294921875
 30
0.0
 10
342.62890625
 20
417.375
 30
0.0
 10
343.70703125
 20
417.375
 30
0.0
 10
344.28125
 20
417.375
 30
0.0
 10
344.814453125
 20
417.7119140625
 30
0.0
 10
345.052734375
 20
418.2021484375
 30
0.0
 10
345.052734375
 20
418.2021484375
 30
0.0
 10
345.052734375
 20
420.5546875
 30
0.0
 10
345.052734375
 20
420.5546875
 30
0.0
  0
HATCH
  5
9A
330
3C
100
AcDbEntity
  8
Layer 1
 62
     7
420
 16777215
100
AcDbHatch
 10
0.0
 20
0.0
 30
0.0
210
0.0
220
0.0
230
1.0
  2
SOLID
 70
     1
 71
     0
 91
        2
 92
        1
 93
        1
 72
     4
 94
        3
 73
     0
 74
     1
 95
       32
 96
       28
 40
0.0
 40
0.0
 40
0.0
 40
0.0
 40
1.0
 40
1.0
 40
1.0
 40
2.0
 40
2.0
 40
2.0
 40
3.0
 40
3.0
 40
3.0
 40
4.0
 40
4.0
 40
4.0
 40
5.0
 40
5.0
 40
5.0
 40
6.0
 40
6.0
 40
6.0
 40
7.0
 40
7.0
 40
7.0
 40
8.0
 40
8.0
 40
8.0
 40
9.0
 40
9.0
 40
9.0
 40
9.0
 10
345.052734375
 20
416.80078125
 10
344.771484375
 20
416.4501953125
 10
344.15625
 20
416.1279296875
 10
343.46875
 20
416.1279296875
 10
341.6484375
 20
416.1279296875
 10
340.583984375
 20
417.5849609375
 10
340.583984375
 20
419.3779296875
 10
340.583984375
 20
421.1572265625
 10
341.6484375
 20
422.6279296875
 10
343.46875
 20
422.6279296875
 10
344.15625
 20
422.6279296875
 10
344.771484375
 20
422.3056640625
 10
345.052734375
 20
421.95556640625
 10
345.052734375
 20
421.95556640625
 10
345.052734375
 20
425.37353515625
 10
345.052734375
 20
425.37353515625
 10
345.052734375
 20
425.37353515625
 10
346.453125
 20
425.37353515625
 10
346.453125
 20
425.37353515625
 10
346.453125
 20
425.37353515625
 10
346.453125
 20
416.2685546875
 10
346.453125
 20
416.2685546875
 10
346.453125
 20
416.2685546875
 10
345.052734375
 20
416.2685546875
 10
345.052734375
 20
416.2685546875
 10
345.052734375
 20
416.2685546875
 10
345.052734375
 20
416.80078125
 10
345.052734375
 20
416.80078125
 97
        0
 92
        1
 93
        1
 72
     4
 94
        3
 73
     0
 74
     1
 95
       20
 96
       16
 40
0.0
 40
0.0
 40
0.0
 40
0.0
 40
1.0
 40
1.0
 40
1.0
 40
2.0
 40
2.0
 40
2.0
 40
3.0
 40
3.0
 40
3.0
 40
4.0
 40
4.0
 40
4.0
 40
5.0
 40
5.0
 40
5.0
 40
5.0
 10
345.052734375
 20
420.5546875
 10
344.814453125
 20
421.044921875
 10
344.28125
 20
421.38134765625
 10
343.70703125
 20
421.38134765625
 10
342.62890625
 20
421.38134765625
 10
341.984375
 20
420.52685546875
 10
341.984375
 20
419.3779296875
 10
341.984375
 20
418.2294921875
 10
342.62890625
 20
417.375
 10
343.70703125
 20
417.375
 10
344.28125
 20
417.375
 10
344.814453125
 20
417.7119140625
 10
345.052734375
 20
418.2021484375
 10
345.052734375
 20
418.2021484375
 10
345.052734375
 20
420.5546875
 10
345.052734375
 20
420.5546875
 97
        0
 75
     2
 76
     1
 98
        0
  0
ENDBLK
  5
3F
330
3C
100
AcDbEntity
  8
0
100
AcDbBlockEnd
  0
ENDSEC
  0
SECTION
  2
ENTITIES
  0
INSERT
  5
3D
330
1F
100
AcDbEntity
  8
Layer 1
100
AcDbBlockReference
  2
block 2
 10
0.0
 20
0.0
 30
0.0
  0
ENDSEC
  0
SECTION
  2
OBJECTS
  0
DICTIONARY
  5
C
330
0
100
AcDbDictionary
281
     1
  3
ACAD_GROUP
350
D
  3
ACAD_LAYOUT
350
1A
  3
ACAD_MLINESTYLE
350
17
  3
ACAD_PLOTSETTINGS
350
19
  3
ACAD_PLOTSTYLENAME
350
E
  3
ACAD_TABLESTYLE
350
9B
  3
ACAD_VISUALSTYLE
350
2A
  0
DICTIONARY
  5
D
102
{ACAD_REACTORS
330
C
102
}
330
C
100
AcDbDictionary
281
     1
  0
DICTIONARY
  5
1A
102
{ACAD_REACTORS
330
C
102
}
330
C
100
AcDbDictionary
281
     1
  3
Layout1
350
1E
  3
Layout2
350
26
  3
Model
350
22
  0
DICTIONARY
  5
17
102
{ACAD_REACTORS
330
C
102
}
330
C
100
AcDbDictionary
281
     1
  3
Standard
350
18
  0
DICTIONARY
  5
19
102
{ACAD_REACTORS
330
C
102
}
330
C
100
AcDbDictionary
281
     1
  0
ACDBDICTIONARYWDFLT
  5
E
102
{ACAD_REACTORS
330
C
102
}
330
C
100
AcDbDictionary
281
     1
  3
Normal
350
F
100
AcDbDictionaryWithDefault
340
F
  0
DICTIONARY
  5
9B
102
{ACAD_REACTORS
330
C
102
}
330
C
100
AcDbDictionary
281
     1
  0
DICTIONARY
  5
2A
102
{ACAD_REACTORS
330
C
102
}
330
C
100
AcDbDictionary
281
     1
  3
2dWireframe
350
2F
  3
3D Hidden
350
31
  3
3dWireframe
350
30
  3
Basic
350
32
  3
Brighten
350
36
  3
ColorChange
350
3A
  3
Conceptual
350
34
  3
Dim
350
35
  3
Facepattern
350
39
  3
Flat
350
2B
  3
FlatWithEdges
350
2C
  3
Gouraud
350
2D
  3
GouraudWithEdges
350
2E
  3
Linepattern
350
38
  3
Realistic
350
33
  3
Thicken
350
37
  0
LAYOUT
  5
1E
102
{ACAD_REACTORS
330
1A
102
}
330
1A
100
AcDbPlotSettings
  1

  2
none_device
  4

  6

 40
0.0
 41
0.0
 42
0.0
 43
0.0
 44
0.0
 45
0.0
 46
0.0
 47
0.0
 48
0.0
 49
0.0
140
0.0
141
0.0
142
1.0
143
1.0
 70
   688
 72
     0
 73
     0
 74
     5
  7

 75
    16
 76
     0
 77
     2
 78
   300
147
1.0
148
0.0
149
0.0
100
AcDbLayout
  1
Layout1
 70
     1
 71
     1
 10
0.0
 20
0.0
 11
12.0
 21
9.0
 12
0.0
 22
0.0
 32
0.0
 14
1.000000000000000E+20
 24
1.000000000000000E+20
 34
1.000000000000000E+20
 15
-1.000000000000000E+20
 25
-1.000000000000000E+20
 35
-1.000000000000000E+20
146
0.0
 13
0.0
 23
0.0
 33
0.0
 16
1.0
 26
0.0
 36
0.0
 17
0.0
 27
1.0
 37
0.0
 76
     0
330
1B
  0
LAYOUT
  5
26
102
{ACAD_REACTORS
330
1A
102
}
330
1A
100
AcDbPlotSettings
  1

  2
none_device
  4

  6

 40
0.0
 41
0.0
 42
0.0
 43
0.0
 44
0.0
 45
0.0
 46
0.0
 47
0.0
 48
0.0
 49
0.0
140
0.0
141
0.0
142
1.0
143
1.0
 70
   688
 72
     0
 73
     0
 74
     5
  7

 75
    16
 76
     0
 77
     2
 78
   300
147
1.0
148
0.0
149
0.0
100
AcDbLayout
  1
Layout2
 70
     1
 71
     2
 10
0.0
 20
0.0
 11
0.0
 21
0.0
 12
0.0
 22
0.0
 32
0.0
 14
0.0
 24
0.0
 34
0.0
 15
0.0
 25
0.0
 35
0.0
146
0.0
 13
0.0
 23
0.0
 33
0.0
 16
1.0
 26
0.0
 36
0.0
 17
0.0
 27
1.0
 37
0.0
 76
     0
330
23
  0
LAYOUT
  5
22
102
{ACAD_REACTORS
330
1A
102
}
330
1A
100
AcDbPlotSettings
  1

  2
none_device
  4

  6

 40
0.0
 41
0.0
 42
0.0
 43
0.0
 44
0.0
 45
0.0
 46
0.0
 47
0.0
 48
0.0
 49
0.0
140
0.0
141
0.0
142
1.0
143
1.0
 70
  1712
 72
     0
 73
     0
 74
     0
  7

 75
     0
 76
     0
 77
     2
 78
   300
147
1.0
148
0.0
149
0.0
100
AcDbLayout
  1
Model
 70
     1
 71
     0
 10
0.0
 20
0.0
 11
12.0
 21
9.0
 12
0.0
 22
0.0
 32
0.0
 14
1.000000000000000E+20
 24
1.000000000000000E+20
 34
1.000000000000000E+20
 15
-1.000000000000000E+20
 25
-1.000000000000000E+20
 35
-1.000000000000000E+20
146
0.0
 13
0.0
 23
0.0
 33
0.0
 16
1.0
 26
0.0
 36
0.0
 17
0.0
 27
1.0
 37
0.0
 76
     0
330
1F
331
29
  0
MLINESTYLE
  5
18
102
{ACAD_REACTORS
330
17
102
}
330
17
100
AcDbMlineStyle
  2
Standard
 70
     0
  3

 62
   256
 51
90.0
 52
90.0
 71
     2
 49
0.5
 62
   256
  6
BYLAYER
 49
-0.5
 62
   256
  6
BYLAYER
  0
ACDBPLACEHOLDER
  5
F
102
{ACAD_REACTORS
330
E
102
}
330
E
  0
VISUALSTYLE
  5
2F
102
{ACAD_REACTORS
330
2A
102
}
330
2A
100
AcDbVisualStyle
  2
2dWireframe
 70
     4
 71
     0
 72
     2
 73
     0
 90
        0
 40
-0.6
 41
-30.0
 62
     5
 63
     7
421
 16777215
 74
     1
 91
        4
 64
     7
 65
   257
 75
     1
175
     1
 42
1.0
 92
        0
 66
   257
 43
1.0
 76
     1
 77
     6
 78
     2
 67
     7
 79
     5
170
     0
171
     0
290
     0
174
     0
 93
        1
 44
0.0
173
     0
291
     0
 45
0.0
1001
ACAD
1000
AcDbSavedByObjectVersion
1070
     0
  0
VISUALSTYLE
  5
31
102
{ACAD_REACTORS
330
2A
102
}
330
2A
100
AcDbVisualStyle
  2
3D Hidden
 70
     6
 71
     1
 72
     2
 73
     2
 90
        0
 40
-0.6
 41
-30.0
 62
     5
 63
     7
421
 16777215
 74
     2
 91
        2
 64
     7
 65
   257
 75
     2
175
     1
 42
40.0
 92
        0
 66
   257
 43
1.0
 76
     1
 77
     6
 78
     2
 67
     7
 79
     3
170
     0
171
     0
290
     0
174
     0
 93
        1
 44
0.0
173
     0
291
     0
 45
0.0
1001
ACAD
1000
AcDbSavedByObjectVersion
1070
     0
  0
VISUALSTYLE
  5
30
102
{ACAD_REACTORS
330
2A
102
}
330
2A
100
AcDbVisualStyle
  2
3dWireframe
 70
     5
 71
     0
 72
     2
 73
     0
 90
        0
 40
-0.6
 41
-30.0
 62
     5
 63
     7
421
 16777215
 74
     1
 91
        4
 64
     7
 65
   257
 75
     1
175
     1
 42
1.0
 92
        0
 66
   257
 43
1.0
 76
     1
 77
     6
 78
     2
 67
     7
 79
     5
170
     0
171
     0
290
     0
174
     0
 93
        1
 44
0.0
173
     0
291
     0
 45
0.0
1001
ACAD
1000
AcDbSavedByObjectVersion
1070
     0
  0
VISUALSTYLE
  5
32
102
{ACAD_REACTORS
330
2A
102
}
330
2A
100
AcDbVisualStyle
  2
Basic
 70
     7
 71
     1
 72
     0
 73
     1
 90
        0
 40
-0.6
 41
-30.0
 62
     5
 63
     7
421
 16777215
 74
     0
 91
        4
 64
     7
 65
   257
 75
     1
175
     1
 42
1.0
 92
        8
 66
     7
 43
1.0
 76
     1
 77
     6
 78
     2
 67
     7
 79
     5
170
     0
171
     0
290
     0
174
     0
 93
        1
 44
0.0
173
     0
291
     1
 45
0.0
1001
ACAD
1000
AcDbSavedByObjectVersion
1070
     0
  0
VISUALSTYLE
  5
36
102
{ACAD_REACTORS
330
2A
102
}
330
2A
100
AcDbVisualStyle
  2
Brighten
 70
    12
 71
     2
 72
     2
 73
     0
 90
        0
 40
-0.6
 41
-30.0
 62
     5
 63
     7
421
 16777215
 74
     1
 91
        4
 64
     7
 65
   257
 75
     1
175
     1
 42
1.0
 92
        8
 66
     7
 43
1.0
 76
     1
 77
     6
 78
     2
 67
     7
 79
     5
170
     0
171
     0
290
     0
174
     0
 93
        1
 44
50.0
173
     0
291
     1
 45
0.0
1001
ACAD
1000
AcDbSavedByObjectVersion
1070
     0
  0
VISUALSTYLE
  5
3A
102
{ACAD_REACTORS
330
2A
102
}
330
2A
100
AcDbVisualStyle
  2
ColorChange
 70
    16
 71
     2
 72
     2
 73
     3
 90
        0
 40
-0.6
 41
-30.0
 62
     5
 63
     8
421
  8421504
 74
     1
 91
        4
 64
     7
 65
   257
 75
     1
175
     1
 42
1.0
 92
        8
 66
     8
424
  8421504
 43
1.0
 76
     1
 77
     6
 78
     2
 67
     7
 79
     5
170
     0
171
     0
290
     0
174
     0
 93
        1
 44
0.0
173
     0
291
     1
 45
0.0
1001
ACAD
1000
AcDbSavedByObjectVersion
1070
     0
  0
VISUALSTYLE
  5
34
102
{ACAD_REACTORS
330
2A
102
}
330
2A
100
AcDbVisualStyle
  2
Conceptual
 70
     9
 71
     3
 72
     2
 73
     0
 90
        0
 40
-0.6
 41
-30.0
 62
     5
 63
     7
421
 16777215
 74
     2
 91
        2
 64
     7
 65
   257
 75
     1
175
     1
 42
40.0
 92
        8
 66
     7
 43
1.0
 76
     1
 77
     6
 78
     2
 67
     7
 79
     3
170
     0
171
     0
290
     0
174
     0
 93
        1
 44
0.0
173
     0
291
     0
 45
0.0
1001
ACAD
1000
AcDbSavedByObjectVersion
1070
     0
  0
VISUALSTYLE
  5
35
102
{ACAD_REACTORS
330
2A
102
}
330
2A
100
AcDbVisualStyle
  2
Dim
 70
    11
 71
     2
 72
     2
 73
     0
 90
        0
 40
-0.6
 41
-30.0
 62
     5
 63
     7
421
 16777215
 74
     1
 91
        4
 64
     7
 65
   257
 75
     1
175
     1
 42
1.0
 92
        8
 66
     7
 43
1.0
 76
     1
 77
     6
 78
     2
 67
     7
 79
     5
170
     0
171
     0
290
     0
174
     0
 93
        1
 44
-50.0
173
     0
291
     1
 45
0.0
1001
ACAD
1000
AcDbSavedByObjectVersion
1070
     0
  0
VISUALSTYLE
  5
39
102
{ACAD_REACTORS
330
2A
102
}
330
2A
100
AcDbVisualStyle
  2
Facepattern
 70
    15
 71
     2
 72
     2
 73
     0
 90
        0
 40
-0.6
 41
-30.0
 62
     5
 63
     7
421
 16777215
 74
     1
 91
        4
 64
     7
 65
   257
 75
     1
175
     1
 42
1.0
 92
        8
 66
     7
 43
1.0
 76
     1
 77
     6
 78
     2
 67
     7
 79
     5
170
     0
171
     0
290
     0
174
     0
 93
        1
 44
0.0
173
     0
291
     1
 45
0.0
1001
ACAD
1000
AcDbSavedByObjectVersion
1070
     0
  0
VISUALSTYLE
  5
2B
102
{ACAD_REACTORS
330
2A
102
}
330
2A
100
AcDbVisualStyle
  2
Flat
 70
     0
 71
     2
 72
     1
 73
     1
 90
        2
 40
-0.6
 41
30.0
 62
     5
 63
     7
421
 16777215
 74
     0
 91
        4
 64
     7
 65
   257
 75
     1
175
     1
 42
1.0
 92
        8
 66
     7
 43
1.0
 76
     1
 77
     6
 78
     2
 67
     7
 79
     5
170
     0
171
     0
290
     0
174
     0
 93
       13
 44
0.0
173
     0
291
     1
 45
0.0
1001
ACAD
1000
AcDbSavedByObjectVersion
1070
     0
  0
VISUALSTYLE
  5
2C
102
{ACAD_REACTORS
330
2A
102
}
330
2A
100
AcDbVisualStyle
  2
FlatWithEdges
 70
     1
 71
     2
 72
     1
 73
     1
 90
        2
 40
-0.6
 41
30.0
 62
     5
 63
     7
421
 16777215
 74
     1
 91
        4
 64
     7
 65
   257
 75
     1
175
     1
 42
1.0
 92
        0
 66
   257
 43
1.0
 76
     1
 77
     6
 78
     2
 67
     7
 79
     5
170
     0
171
     0
290
     0
174
     0
 93
       13
 44
0.0
173
     0
291
     1
 45
0.0
1001
ACAD
1000
AcDbSavedByObjectVersion
1070
     0
  0
VISUALSTYLE
  5
2D
102
{ACAD_REACTORS
330
2A
102
}
330
2A
100
AcDbVisualStyle
  2
Gouraud
 70
     2
 71
     2
 72
     2
 73
     1
 90
        2
 40
-0.6
 41
30.0
 62
     5
 63
     7
421
 16777215
 74
     0
 91
        4
 64
     7
 65
   257
 75
     1
175
     1
 42
1.0
 92
        0
 66
     7
 43
1.0
 76
     1
 77
     6
 78
     2
 67
     7
 79
     5
170
     0
171
     0
290
     0
174
     0
 93
       13
 44
0.0
173
     0
291
     1
 45
0.0
1001
ACAD
1000
AcDbSavedByObjectVersion
1070
     0
  0
VISUALSTYLE
  5
2E
102
{ACAD_REACTORS
330
2A
102
}
330
2A
100
AcDbVisualStyle
  2
GouraudWithEdges
 70
     3
 71
     2
 72
     2
 73
     1
 90
        2
 40
-0.6
 41
30.0
 62
     5
 63
     7
421
 16777215
 74
     1
 91
        4
 64
     7
 65
   257
 75
     1
175
     1
 42
1.0
 92
        0
 66
   257
 43
1.0
 76
     1
 77
     6
 78
     2
 67
     7
 79
     5
170
     0
171
     0
290
     0
174
     0
 93
       13
 44
0.0
173
     0
291
     1
 45
0.0
1001
ACAD
1000
AcDbSavedByObjectVersion
1070
     0
  0
VISUALSTYLE
  5
38
102
{ACAD_REACTORS
330
2A
102
}
330
2A
100
AcDbVisualStyle
  2
Linepattern
 70
    14
 71
     2
 72
     2
 73
     0
 90
        0
 40
-0.6
 41
-30.0
 62
     5
 63
     7
421
 16777215
 74
     1
 91
        4
 64
     7
 65
   257
 75
     7
175
     7
 42
1.0
 92
        8
 66
     7
 43
1.0
 76
     1
 77
     6
 78
     2
 67
     7
 79
     5
170
     0
171
     0
290
     0
174
     0
 93
        1
 44
0.0
173
     0
291
     1
 45
0.0
1001
ACAD
1000
AcDbSavedByObjectVersion
1070
     0
  0
VISUALSTYLE
  5
33
102
{ACAD_REACTORS
330
2A
102
}
330
2A
100
AcDbVisualStyle
  2
Realistic
 70
     8
 71
     2
 72
     2
 73
     0
 90
        0
 40
-0.6
 41
-30.0
 62
     5
 63
     7
421
 16777215
 74
     1
 91
        0
 64
     7
 65
   257
 75
     1
175
     1
 42
1.0
 92
        8
 66
     8
424
  7895160
 43
1.0
 76
     1
 77
     6
 78
     2
 67
     7
 79
     5
170
     0
171
     0
290
     0
174
     0
 93
       13
 44
0.0
173
     0
291
     0
 45
0.0
1001
ACAD
1000
AcDbSavedByObjectVersion
1070
     0
  0
VISUALSTYLE
  5
37
102
{ACAD_REACTORS
330
2A
102
}
330
2A
100
AcDbVisualStyle
  2
Thicken
 70
    13
 71
     2
 72
     2
 73
     0
 90
        0
 40
-0.6
 41
-30.0
 62
     5
 63
     7
421
 16777215
 74
     1
 91
        4
 64
     7
 65
   257
 75
     1
175
     1
 42
1.0
 92
       12
 66
     7
 43
1.0
 76
     1
 77
     6
 78
     2
 67
     7
 79
     5
170
     0
171
     0
290
     0
174
     0
 93
        1
 44
0.0
173
     0
291
     1
 45
0.0
1001
ACAD
1000
AcDbSavedByObjectVersion
1070
     0
  0
ENDSEC
  0
EOF
