**ABCDEFGHIJKLMNOPQRSTUVWXYZabcdefghijklmnopqrstuvwxyz**************************
**PARASOLID !"#$%&'()*+,-./:;<=>?@[\]^_`{|}~0123456789**************************
**PART1;
MC=AMD64;
MC_MODEL=Intel64 Family 6 Model 58 Stepping 9, GenuineIntel;
MC_ID=unknown;
OS=Windows_NT;
OS_RELEASE=unknown;
FRU=Parasolid Version 24.1, build 231,  7-17-2012;
APPL=SolidWorks 2013-2012270;
SITE=;
USER=unknown;
FORMAT=text;
GUISE=transmit;
KEY=TT_308_A_dongle_strain_relief;
FILE=TT_308_A_dongle_strain_relief.x_t;
DATE=Thu Mar 06 14:05:36 2014;
**PART2;
SCH=SCH_2401231_20000;
USFLD_SIZE=0;
**PART3;
**END_OF_HEADER*****************************************************************
T51 : TRANSMIT FILE created by modeller version 240123123 SCH_2401231_20000_1300
6189 0 12 27 CCCCCCCCCCCCCCCCCCCCCCCA16 index_map_offset0 0 1 dA9 index_map82 0
 A17 node_id_index_map82 0 A20 schema_embedding_map82 0 Z1 3457 0 2 0 0 0 0 1e3
 1e-8 0 3 0 1 0 1 1 4 5 6 7 8 9 10 0 0 0 0 70 11 CI9 list_type0 0 1 uI10 notrans
mit0 0 1 lCCCDCCDI12 finger_index0 0 1 dI12 finger_block1012 0 CZ2 0 4 T1 0 0 2
 20 1 11 11 13 255 4 29 0 1 0 12 0 0 13 0 54 255 5 2555 0 14 15 0 0 +-5204170427
93042e-32 1734723475976805e-33 .0025 0 0 1 .003845568820726965 5e-4 1 0 0 31 255
 6 2539 0 9 16 0 0 +-520417042793042e-32 1734723475976805e-33 .00248909255748272
5 0 0 1 1 0 0 .00334568780718701 29 255 7 2147 0 17 18 0 -.00365 .00165 -.0029 1
9 255 8 7 0 1 13 0 19 V16 255 9 2536 0 ?20 0 21 6 0 0 1 18 255 10 1879 0 22 0 23
 18 ?1 17 255 22 0 24 25 26 10 27 28 0 29 -18 23 1876 0 30 10 31 32 ?1 29 18 214
6 0 10 33 7 -.00215 .00315 0 29 33 2145 0 34 35 18 .00215 .00315 -.0029 18 34 18
70 0 36 31 37 33 ?1 29 35 2144 0 37 38 33 .00365 .00165 0 18 37 1857 0 39 34 40
 35 ?1 29 38 2143 0 41 42 35 .00365 -.00165 -.0029 18 41 1848 0 43 44 45 38 ?1 2
9 42 2142 0 46 47 38 .00215 -.00315 0 18 46 1826 0 48 49 17 42 ?1 29 47 2141 0 4
5 50 42 -.00215 -.00315 -.0029 18 45 1835 0 51 41 52 47 ?1 29 50 2140 0 53 32 47
 -.00365 -.00165 0 18 53 1804 0 54 55 56 50 ?1 29 32 1878 0 23 57 50 .00215 .003
15 0 29 57 1875 0 31 58 32 -.00215 .00315 -.0029 18 31 1873 0 59 23 34 57 ?1 29
 58 1856 0 40 60 57 .00365 -.00165 0 18 40 1854 0 61 37 44 58 ?1 29 60 1853 0 44
 62 58 .00365 .00165 -.0029 18 44 1851 0 63 40 41 60 ?1 29 62 1834 0 52 64 60 .0
0215 -.00315 -.0029 18 52 1832 0 65 45 49 62 ?1 29 64 1831 0 49 66 62 -.00215 -.
00315 0 18 49 1829 0 67 52 46 64 ?1 29 66 1812 0 68 69 64 -.00365 -.00165 -.0029
 18 68 1810 0 70 17 55 66 ?1 29 69 1809 0 55 71 66 -.00365 .00165 0 18 55 1807 0
 27 68 53 69 ?1 29 71 1609 0 56 72 69 .003052953921900665 .0011 .0071 18 56 1607
 0 73 53 74 71 ?1 29 72 1460 0 74 75 71 .002936724727598755 .0011 .0121 18 74 14
58 0 76 56 77 72 ?1 29 75 1289 0 77 78 72 .0030807713443814 -.0011 .0059 18 77 1
287 0 79 74 80 75 ?1 29 78 1140 0 80 81 75 .002964669149054185 -.0011 .0109 18 8
0 1138 0 82 77 83 78 ?1 29 81 957 0 83 84 78 .0011 -.00313863405064666 .0034 18
 83 955 0 85 80 86 81 ?1 29 84 814 0 86 87 81 .0011 -.003022785453217665 .0084 1
8 86 812 0 88 83 89 84 ?1 29 87 671 0 89 90 84 -.0011 -.002994906369787915 .0096
 18 89 669 0 91 86 92 87 ?1 29 90 528 0 92 93 87 -.0011 -.003110874890129995 .00
46 18 92 526 0 94 89 95 90 ?1 29 93 650 0 95 96 90 -.0011 .003138634050646665 .0
034 18 95 580 0 97 92 98 93 ?1 29 96 651 0 98 99 93 -.0011 -.00313863405064666 .
0034 18 98 585 0 100 95 101 96 ?1 29 99 652 0 101 102 96 -.0011 .00311087489013
 .0046 18 101 581 0 103 98 104 99 ?1 29 102 793 0 104 105 99 -.0011 .00302278545
321767 .0084 18 104 723 0 106 101 107 102 ?1 29 105 794 0 107 108 102 -.0011 -.0
0302278545321767 .0084 18 107 728 0 109 104 110 105 ?1 29 108 795 0 110 111 105
 -.0011 .00299490636978792 .0096 18 110 724 0 112 107 113 108 ?1 29 111 936 0 11
3 114 108 .0011 .002994906369787915 .0096 18 113 866 0 115 110 116 111 ?1 29 114
 937 0 116 117 111 .0011 -.002994906369787915 .0096 18 116 871 0 118 113 119 114
 ?1 29 117 938 0 119 120 114 .0011 .00302278545321767 .0084 18 119 867 0 121 116
 122 117 ?1 29 120 1079 0 122 123 117 .0011 .003110874890129995 .0046 18 122 100
9 0 124 119 125 120 ?1 29 123 1080 0 125 126 120 .0011 -.003110874890129995 .004
6 18 125 1014 0 127 122 128 123 ?1 29 126 1081 0 128 129 123 .0011 .003138634050
64666 .0034 18 128 1010 0 130 125 131 126 ?1 29 129 1269 0 131 132 126 -.0029646
69149053845 -.0011 .0109 18 131 1200 0 133 128 134 129 ?1 29 132 1270 0 134 135
 129 .002936724727598435 -.0011 .0121 18 134 1201 0 136 131 137 132 ?1 29 135 12
71 0 137 138 132 -.002936724727598445 -.0011 .0121 18 137 1207 0 139 134 140 135
 ?1 29 138 1418 0 140 141 135 -.003080771344381155 -.0011 .0059 18 140 1349 0 14
2 137 143 138 ?1 29 141 1419 0 143 144 138 .003052953921900435 -.0011 .0071 18 1
43 1350 0 145 140 146 141 ?1 29 144 1420 0 146 147 141 -.00305295392190045 -.001
1 .0071 18 146 1356 0 148 143 149 144 ?1 29 147 1589 0 149 150 144 -.00293672472
7598445 .0011 .0121 18 149 1520 0 151 146 152 147 ?1 29 150 1590 0 152 153 147 .
002964669149053835 .0011 .0109 18 152 1521 0 154 149 155 150 ?1 29 153 1591 0 15
5 156 150 -.002964669149053845 .0011 .0109 18 155 1528 0 157 152 158 153 ?1 29 1
56 1738 0 158 159 153 -.00305295392190045 .0011 .0071 18 158 1669 0 160 155 161
 156 ?1 29 159 1739 0 161 162 156 .003080771344381145 .0011 .0059 18 161 1670 0
 163 158 164 159 ?1 29 162 1740 0 164 0 159 -.003080771344381155 .0011 .0059 18
 164 1677 0 165 161 0 162 ?1 17 165 0 166 167 167 164 168 169 0 170 -15 255 166
 1688 0 167 171 0 17 167 0 166 165 165 161 170 172 0 168 +17 168 0 173 174 175 1
61 165 169 0 0 +16 169 1612 0 ?168 176 177 178 0 0 1 17 170 0 179 160 163 164 16
7 172 0 175 -15 179 1691 0 73 180 0 17 160 0 179 73 170 158 175 181 0 182 -17 16
3 0 179 170 73 161 174 177 0 167 -16 172 1630 0 ?167 183 0 184 0 0 1 17 175 0 17
3 168 185 164 160 181 0 0 +15 173 1605 0 185 12 186 17 185 0 173 175 174 158 187
 176 0 0 -16 181 1619 0 ?175 188 176 189 0 0 1 16 188 1768 0 ?190 191 181 192 0
 0 1 16 176 1616 0 ?187 181 169 193 0 0 1 38 255 189 1621 0 181 193 192 0 +194 1
95 196 197 198 31 193 1618 0 176 178 189 0 +-520417042793042e-32 173472347597680
5e-33 .0071 0 0 -1 -1 0 0 .00324507744888274 31 192 1771 0 188 189 199 0 +-52041
7042793042e-32 1734723475976805e-33 .0142 0 0 1 1 0 0 .00257887982112455 52 255
 194 495 0 12 200 201 202 --520417042793042e-32 1734723475976805e-33 0 0 0 -1 .0
034 .02181488503456115 .999762027079909 1 0 0 50 255 195 1723 0 180 0 203 204 +0
 .0011 0 0 -1 0 0 0 1 40 255 3 196 0 1 3 448065732019884e-21 .000137137232486663
6 ??-.002918356607189205 .0011 .01288800818413148 -.003066563290798605 .0011 .00
65130681824724 -.003213956580196685 .0011 .0001381093251810894 41 255 1 197 L-.0
02918356607189205 .0011 .01288800818413148 41 1 198 L-.003213956580196685 .0011
 .0001381093251810894 14 255 180 1689 205 ?206 171 179 4 195 -0 0 206 171 19 50
 203 1722 0 207 195 208 0 +-.00384083781550504 .0171 .0071 0 0 -1 -1 0 0 141 255
 204 209 210 210 195 38 209 1610 0 177 211 178 0 +194 195 212 213 214 141 210 18
9 204 204 195 16 177 1608 0 ?174 169 215 209 0 0 1 38 211 1472 0 215 216 209 0 +
194 217 218 219 220 31 178 1614 0 169 209 193 0 +-520417042793042e-32 1734723475
976805e-33 .0059 0 0 -1 -1 0 0 .003271261542029315 40 3 212 0 1 3 44806573202031
75e-22 .00013713723248666 ??.003213956580196675 .0011 .0001381093251810894 .0030
66563290798595 .0011 .0065130681824724 .002918356607189195 .0011 .01288800818413
148 41 1 213 L.003213956580196675 .0011 .0001381093251810894 41 1 214 L.00291835
6607189195 .0011 .01288800818413148 16 215 1470 0 ?221 177 222 211 0 0 1 31 216
 1469 0 222 223 211 0 +-520417042793042e-32 1734723475976805e-33 .0121 0 0 -1 -1
 0 0 .00313597706077199 50 217 1574 0 224 208 225 226 +0 .0011 0 0 -1 0 0 0 1 40
 3 218 0 1 3 47039910146991e-20 .0001489236921600624 ??-.002806527811618865 .001
1 .01767186624836935 -.00295046090490412 .0011 .01151030913702072 -.003093540828
902345 .0011 .00534873215773358 41 1 219 L-.002806527811618865 .0011 .0176718662
4836935 41 1 220 L-.003093540828902345 .0011 .00534873215773358 14 224 1540 227
 ?207 228 229 4 217 -0 0 207 228 19 50 208 1720 0 171 203 217 0 +-.0038408378155
0504 .0171 .0059 0 0 -1 -1 0 0 50 225 1573 0 230 217 231 0 +-.00384083781550504
 .0171 .0121 0 0 -1 -1 0 0 141 226 232 233 233 217 38 232 1461 0 234 235 223 0 +
194 217 236 237 238 141 233 211 226 226 217 16 234 1459 0 ?239 240 241 232 0 0 1
 38 235 1301 0 241 242 232 0 +194 243 244 245 246 31 223 1465 0 240 232 216 0 +-
520417042793042e-32 1734723475976805e-33 .0109 0 0 -1 -1 0 0 .00316216115391857
 40 3 236 0 1 3 470399101469869e-21 .0001489236921600624 ??.003093540828902335 .
0011 .00534873215773358 .00295046090490411 .0011 .01151030913702072 .00280652781
1618855 .0011 .01767186624836935 41 1 237 L.003093540828902335 .0011 .0053487321
5773358 41 1 238 L.002806527811618855 .0011 .01767186624836935 16 240 1463 0 ?24
7 222 234 223 0 0 1 17 247 0 186 239 221 152 157 240 0 0 +16 222 1467 0 ?248 215
 240 216 0 0 1 17 248 0 249 250 250 74 251 222 0 239 +15 249 1535 0 248 230 0 17
 250 0 249 248 248 149 76 252 0 251 -17 251 0 186 221 239 149 248 222 0 0 -17 23
9 0 186 251 247 74 154 234 0 0 +15 186 1456 0 251 12 253 17 154 0 229 254 76 152
 239 234 0 255 -15 229 1542 0 76 224 0 17 254 0 229 151 154 155 255 256 0 221 -1
7 76 0 229 154 151 74 250 252 0 248 +17 255 0 257 157 157 152 254 256 0 247 +15
 257 1539 0 255 228 0 17 157 0 257 255 255 155 247 240 0 254 -16 256 1481 0 ?255
 252 183 258 0 0 1 16 252 1476 0 ?76 259 256 260 0 0 1 16 183 1625 0 ?73 256 172
 261 0 0 1 30 255 258 1582 0 256 261 260 0 +-.00384083781550504 .0011 .0109 1 0
 0 30 261 1729 0 183 184 258 0 +-.00384083781550504 .0011 .0071 1 0 0 30 260 158
0 0 252 258 262 0 +-.00384083781550504 .0011 .0121 1 0 0 30 262 1412 0 259 260 2
63 0 +-.00384083781550504 -.0011 .0059 1 0 0 16 259 1305 0 ?79 264 252 262 0 0 1
 30 263 1410 0 264 262 265 0 +-.00384083781550504 -.0011 .0071 1 0 0 16 264 1310
 0 ?266 267 259 263 0 0 1 30 265 1262 0 267 263 268 0 +-.00384083781550504 -.001
1 .0121 1 0 0 16 267 1161 0 ?269 270 264 265 0 0 1 30 268 1260 0 270 265 271 0 +
-.00384083781550504 -.0011 .0109 1 0 0 16 270 1156 0 ?82 272 267 268 0 0 1 30 27
1 1077 0 272 268 273 0 +.0011 -.008 .0046 0 1 0 16 272 974 0 ?274 275 270 271 0
 0 1 30 273 1076 0 275 271 276 0 +.0011 -.008 .0034 0 1 0 16 275 980 0 ?277 278
 272 273 0 0 1 30 276 934 0 278 273 279 0 +.0011 -.008 .0096 0 1 0 16 278 831 0
 ?280 281 275 276 0 0 1 30 279 933 0 281 276 282 0 +.0011 -.008 .0084 0 1 0 16 2
81 837 0 ?283 284 278 279 0 0 1 30 282 791 0 285 279 286 0 +-.0011 -.008 .0096 0
 1 0 16 285 690 0 ?287 288 284 282 0 0 1 30 286 790 0 284 282 289 0 +-.0011 -.00
8 .0084 0 1 0 16 284 687 0 ?290 285 281 286 0 0 1 30 289 640 0 291 286 292 0 +-.
0011 -.008 .0034 0 1 0 16 291 544 0 ?293 294 288 289 0 0 1 30 292 639 0 288 289
 295 0 +-.0011 -.008 .0046 0 1 0 16 288 547 0 ?296 291 285 292 0 0 1 31 295 380
 0 297 292 298 0 +-520417042793042e-32 1734723475976805e-33 -.005 0 0 1 1 0 0 .0
0475 16 297 336 0 ?299 300 294 295 0 0 1 31 298 379 0 294 295 301 0 +-5204170427
93042e-32 1734723475976805e-33 -.0029 0 0 1 1 0 0 .00475 16 294 312 0 ?302 297 2
91 298 0 0 1 30 301 217 0 300 298 303 0 +.00365 -.00315 -.0029 0 1 0 16 300 1849
 0 ?304 305 297 301 0 0 1 30 303 216 0 305 301 306 0 +.00365 .00315 -.0029 -1 -1
188166764367676e-31 0 16 305 1871 0 ?307 308 300 303 0 0 1 30 306 215 0 308 303
 309 0 +-.00365 -.00315 -.0029 0 1 0 16 308 1811 0 ?310 311 305 306 0 0 1 30 309
 214 0 311 306 312 0 +.00365 -.00315 -.0029 -1 -1782250146551515e-31 0 16 311 18
33 0 ?313 314 308 309 0 0 1 30 312 213 0 315 309 316 0 +.00365 -.00315 0 0 1 0 1
6 315 1855 0 ?317 318 319 312 0 0 1 30 316 212 0 319 312 320 0 +.00365 .00315 0
 -1 -1188166764367676e-31 0 16 319 1877 0 ?321 315 322 316 0 0 1 30 320 211 0 32
2 316 323 0 +-.00365 -.00315 0 0 1 0 16 322 1805 0 ?324 319 325 320 0 0 1 30 323
 210 0 325 320 326 0 +.00365 -.00315 0 -1 -1782250146551515e-31 0 16 325 1827 0
 ?327 322 314 323 0 0 1 31 326 529 0 318 323 328 0 +-520417042793042e-32 1734723
475976805e-33 .0046 0 0 1 1 0 0 .00329962764293811 16 318 527 0 ?329 330 315 326
 0 0 1 38 328 533 0 330 326 331 0 +194 332 333 334 335 16 330 531 0 ?97 336 318
 328 0 0 1 38 331 537 0 336 328 337 0 +194 332 338 339 340 50 332 634 0 341 342
 343 344 +-.0011 -.008 .0034 -1 0 0 0 0 1 40 3 333 0 1 3 437740679660014e-21 .00
0131785895448005 ??-.0011 .002974068180865555 .01049607370119728 -.0011 .0031244
23778390775 .00401444233417074 -.0011 .0032739843984364 -.002467207422975515 41
 1 334 L-.0011 .002974068180865555 .01049607370119728 41 1 335 L-.0011 .00327398
43984364 -.002467207422975515 14 341 596 345 ?346 347 348 4 332 +0 0 346 347 19
 50 342 635 0 347 349 332 0 +-.00578395077144665 -.008 .0034 0 0 1 1 0 0 50 343
 633 0 346 332 200 0 +-.00578395077144665 -.008 .0046 0 0 1 1 0 0 141 344 328 35
0 350 332 141 350 331 344 344 332 14 346 604 351 ?352 341 353 4 343 -0 0 352 341
 19 50 200 497 0 354 343 194 0 +-520417042793042e-32 1734723475976805e-33 .0142
 0 0 1 1 0 0 14 354 487 355 ?347 356 357 4 200 +0 0 347 356 19 81 255 1 355 3419
 358 354 359 0 351 360 361 14 347 592 360 ?341 354 362 4 342 +0 0 341 354 19 14
 356 368 363 ?354 364 365 4 201 -0 0 354 364 19 15 357 1769 0 190 354 0 13 19 8
 0 0 0 0 0 0 8 12 14 12 970 366 ?367 0 368 4 194 -0 0 367 0 19 81 1 366 3422 358
 12 369 0 363 370 371 14 367 441 370 ?372 12 373 4 374 +0 0 372 12 19 15 368 253
7 0 20 12 375 17 20 0 368 20 20 0 376 9 0 0 +15 375 1775 0 377 12 173 17 377 0 3
75 377 377 0 378 191 0 0 +17 378 0 379 378 378 0 377 191 0 0 -16 191 1774 0 ?377
 380 188 199 0 0 1 16 380 1816 0 ?381 382 191 383 0 0 1 31 199 1777 0 191 192 38
3 0 +-520417042793042e-32 1734723475976805e-33 .01370011898646002 0 0 -1 -1 0 0
 .00310106234028276 30 383 1818 0 380 199 384 0 --.00365 .00165 -.0029 0 0 1 30
 384 1823 0 382 383 385 0 +-.00365 -.00165 -.0029 0 0 1 16 382 1821 0 ?386 387 3
80 384 0 0 1 30 385 1840 0 387 384 388 0 +.00215 -.00315 0 0 0 1 16 387 1838 0 ?
389 390 382 385 0 0 1 30 388 1845 0 390 385 391 0 --.00215 -.00315 -.0029 0 0 1
 16 390 1843 0 ?51 392 387 388 0 0 1 30 391 1862 0 392 388 393 0 +.00365 .00165
 -.0029 0 0 1 16 392 1860 0 ?394 395 390 391 0 0 1 30 393 1867 0 395 391 396 0 -
.00365 -.00165 -.0029 0 0 1 16 395 1865 0 ?43 397 392 393 0 0 1 30 396 1884 0 39
7 393 398 0 +-.00215 .00315 0 0 0 1 16 397 1882 0 ?29 399 395 396 0 0 1 30 398 1
889 0 399 396 400 0 -.00215 .00315 -.0029 0 0 1 16 399 1887 0 ?36 401 397 398 0
 0 1 31 400 2148 0 401 398 402 0 +-.00215 -.00165 0 0 0 1 1 0 0 .0015 16 401 190
0 0 ?67 403 399 400 0 0 1 31 402 2149 0 403 400 404 0 --.00215 -.00165 -.0029 0
 0 1 1 0 0 .0015 16 403 1912 0 ?70 405 401 402 0 0 1 31 404 2150 0 405 402 406 0
 +.00215 -.00165 0 0 0 1 1 0 0 .0015 16 405 1924 0 ?61 407 403 404 0 0 1 31 406
 2151 0 407 404 408 0 -.00215 -.00165 -.0029 0 0 1 1 0 0 .0015 16 407 1936 0 ?65
 409 405 406 0 0 1 31 408 2152 0 409 406 410 0 +.00215 .00165 0 0 0 1 1 0 0 .001
5 16 409 1948 0 ?30 411 407 408 0 0 1 31 410 2153 0 411 408 412 0 -.00215 .00165
 -.0029 0 0 1 1 0 0 .0015 16 411 1960 0 ?63 28 409 410 0 0 1 31 412 2154 0 28 41
0 413 0 +-.00215 .00165 0 0 0 1 1 0 0 .0015 16 28 1972 0 ?27 414 411 412 0 0 1 3
1 413 2155 0 414 412 415 0 --.00215 .00165 -.0029 0 0 1 1 0 0 .0015 16 414 1984
 0 ?59 416 28 413 0 0 1 31 415 2491 0 314 413 417 0 +-520417042793042e-32 173472
3475976805e-33 0 0 0 1 1 0 0 .00488985362388702 16 314 55 0 ?418 325 311 415 0 0
 1 31 417 2500 0 416 415 419 0 +-520417042793042e-32 1734723475976805e-33 .002 0
 0 1 1 0 0 .00451687122846559 16 416 2497 0 ?420 421 414 417 0 0 1 31 419 2506 0
 421 417 16 0 +-520417042793042e-32 1734723475976805e-33 .00176743911843603 0 0
 -1 -1 0 0 .00476626224103054 16 421 2503 0 ?422 21 416 419 0 0 1 31 16 2533 0 2
1 419 6 0 --520417042793042e-32 1734723475976805e-33 .002 0 0 1 1 0 0 .003845568
820726965 16 21 2530 0 ?423 9 421 16 0 0 1 17 423 0 373 423 423 0 424 21 0 0 +15
 373 2531 0 423 367 425 17 424 0 426 424 424 0 423 21 0 0 -15 426 2550 0 424 14
 0 14 14 2548 427 ?0 428 429 4 5 -0 0 0 428 19 81 1 427 3424 358 14 430 0 370 43
1 432 14 428 2515 431 ?14 433 434 4 15 +0 0 14 433 19 15 429 2549 0 376 14 426 1
7 376 0 429 376 376 0 20 9 0 0 -81 1 431 3425 358 428 435 0 427 436 437 14 433 2
380 436 ?428 438 24 4 439 +0 0 428 438 19 15 434 2516 0 440 428 441 54 15 2522 0
 428 442 5 0 +-520417042793042e-32 1734723475976805e-33 .00175 0 0 1 .0045168712
2846559 25e-5 1 0 0 52 442 2492 0 443 439 15 0 --520417042793042e-32 17347234759
76805e-33 .002 0 0 -1 .00475 .0697564737441255 .997564050259824 1 0 0 14 443 25
 444 ?445 372 446 4 442 -0 0 445 372 19 51 255 439 2392 0 433 447 442 0 +-.00215
 .00165 -.0029 0 0 -1 .0015 -1 0 0 51 447 2371 0 438 448 439 0 +.00215 .00165 -.
0029 0 0 1 .0015 1 0 0 14 438 2359 449 ?433 450 451 4 447 +0 0 433 450 19 51 448
 2350 0 450 452 447 0 +.00215 -.00165 -.0029 0 0 -1 .0015 -1 0 0 14 450 2338 453
 ?438 454 455 4 448 +0 0 438 454 19 51 452 2329 0 454 456 448 0 +-.00215 -.00165
 -.0029 0 0 1 .0015 1 0 0 14 454 2317 457 ?450 206 458 4 452 +0 0 450 206 19 52
 456 1793 0 206 459 452 0 +-520417042793042e-32 1734723475976805e-33 .0142 0 0 -
1 .00257887982112455 .722363962059753 .691513055782272 -1 0 0 14 206 1786 460 ?4
54 180 379 4 456 +0 0 454 180 19 50 459 22 0 372 374 456 0 +-520417042793042e-32
 1734723475976805e-33 0 0 0 1 1 0 0 14 372 81 461 ?443 367 462 4 459 -0 0 443 36
7 19 50 374 2 0 367 463 459 0 +-520417042793042e-32 1734723475976805e-33 .002 0
 0 1 1 0 0 50 463 200 0 445 464 374 0 +.00365 -.00315 -.0029 1 0 0 0 0 -1 14 445
 176 465 ?466 443 467 4 463 +0 0 466 443 19 50 464 201 0 468 469 463 0 +.00365 .
00315 -.0029 -1188166764367676e-31 1 0 -1 -1188166764367676e-31 0 14 468 188 470
 ?471 472 473 4 464 +0 0 471 472 19 50 469 202 0 472 474 464 0 +-.00365 -.00315
 -.0029 1 0 0 0 0 -1 14 472 184 475 ?468 466 476 4 469 -0 0 468 466 19 50 474 20
3 0 466 477 469 0 +.00365 -.00315 -.0029 -1782250146551515e-31 1 0 -1 -178225014
6551515e-31 0 14 466 180 478 ?472 445 479 4 474 -0 0 472 445 19 51 477 376 0 364
 480 474 0 +-520417042793042e-32 1734723475976805e-33 -.005 0 0 1 .00475 1 0 0 1
4 364 363 481 ?356 471 482 4 477 +0 0 356 471 19 50 480 377 0 471 201 477 0 +-52
0417042793042e-32 1734723475976805e-33 -.0029 0 0 1 1 0 0 14 471 360 483 ?364 46
8 484 4 480 +0 0 364 468 19 50 201 378 0 356 194 480 0 +-520417042793042e-32 173
4723475976805e-33 -.005 0 0 1 1 0 0 81 1 483 3438 358 471 485 0 481 486 487 15 4
84 2173 0 302 471 488 17 302 0 484 302 302 0 489 294 0 0 +15 488 362 0 490 471 0
 17 490 0 488 63 59 34 307 305 0 491 -17 63 0 488 492 490 44 491 411 0 304 +17 5
9 0 488 490 310 31 493 414 0 307 +17 307 0 473 29 36 31 490 305 0 25 +17 491 0 4
51 494 495 34 63 411 0 0 -15 451 2360 0 491 438 0 17 494 0 451 39 491 23 36 399
 0 0 -17 495 0 451 491 39 44 394 392 0 0 -17 39 0 451 495 494 37 30 409 0 394 -1
7 394 0 467 496 304 37 495 392 0 317 +15 467 179 0 496 445 0 17 496 0 467 43 394
 40 317 315 0 497 -17 304 0 467 394 43 44 492 300 0 495 +17 317 0 498 30 61 37 4
96 315 0 0 +15 498 80 0 499 372 0 17 30 0 498 321 317 23 39 409 0 500 +17 61 0 4
98 317 501 40 48 405 0 496 +17 501 0 498 61 67 46 327 325 0 0 -17 48 0 455 502 4
97 46 61 405 0 389 -15 455 2339 0 503 450 0 17 502 0 455 503 48 52 389 387 0 0 -
17 497 0 455 48 503 40 43 395 0 0 -17 389 0 479 327 504 46 502 387 0 501 +15 479
 183 0 327 466 0 17 327 0 479 51 389 49 501 325 0 505 +17 504 0 479 389 51 52 31
3 311 0 502 -17 51 0 479 504 327 45 505 390 0 313 +17 313 0 488 70 65 45 504 311
 0 506 +17 70 0 488 310 313 68 506 403 0 507 +17 65 0 488 313 492 52 503 407 0 5
04 +17 506 0 458 505 508 45 70 403 0 0 -15 458 2318 0 506 454 0 17 505 0 458 54
 506 49 51 390 0 0 -17 508 0 458 506 54 68 386 382 0 0 -17 54 0 458 508 505 53 6
7 401 0 386 -17 386 0 476 324 507 53 508 382 0 499 +15 476 187 0 507 472 0 17 32
4 0 476 381 386 55 499 322 0 26 +17 507 0 476 386 381 68 310 308 0 508 -17 499 0
 498 67 27 53 324 322 0 0 -17 67 0 498 501 499 49 54 401 0 327 +17 27 0 498 499
 321 55 22 28 0 324 +17 321 0 498 27 30 10 500 319 0 0 +17 500 0 473 36 29 23 32
1 319 0 494 -15 473 191 0 500 468 0 17 36 0 473 307 500 34 494 399 0 490 +17 29
 0 473 500 307 10 25 397 0 321 +17 25 0 24 493 22 31 29 397 0 0 -15 24 2381 0 49
3 433 0 17 493 0 24 26 25 17 59 414 0 0 -17 26 0 24 22 493 55 381 380 0 0 -18 17
 1813 0 381 46 68 7 ?1 17 381 0 476 507 324 17 26 380 0 310 +17 310 0 488 59 70
 17 507 308 0 493 +17 492 0 488 65 63 41 304 300 0 503 -17 503 0 455 497 502 41
 65 407 0 0 -17 43 0 467 304 496 41 497 395 0 492 +17 489 0 509 489 489 0 302 29
4 0 0 -15 509 367 0 489 364 0 80 255 1 358 510 511 9000 1 1 1 1 1 1 1 1 0 FFFFTF
TFFFFFFF1 81 1 485 3292 512 471 0 483 513 514 515 81 1 481 3437 358 364 514 0 47
8 483 516 81 1 486 3439 358 352 517 0 483 518 519 82 255 1 487 1933050289 14 352
 735 486 ?520 346 521 4 349 +0 0 520 346 19 81 1 517 3299 512 352 0 486 522 523
 524 81 1 518 3440 358 520 523 0 486 525 526 82 1 519 -737541715 14 520 739 518
 ?527 352 528 4 529 +0 0 527 352 19 81 1 523 3300 512 520 0 518 517 530 531 81 1
 525 3441 358 527 530 0 518 532 533 82 1 526 -738000467 14 527 747 525 ?534 520
 535 4 536 -0 0 534 520 19 81 1 530 3301 512 527 0 525 523 537 538 81 1 532 3442
 358 534 537 0 525 539 540 82 1 533 -739573331 14 534 878 532 ?541 527 542 4 543
 +0 0 541 527 19 81 1 537 3302 512 534 0 532 530 544 545 81 1 539 3443 358 541 5
44 0 532 546 547 82 1 540 -732167763 14 541 882 539 ?548 534 549 4 550 -0 0 548
 534 19 81 1 544 3303 512 541 0 539 537 551 552 81 1 546 3444 358 548 551 0 539
 553 554 82 1 547 -732626515 14 548 890 546 ?555 541 556 4 557 -0 0 555 541 19 8
1 1 551 3304 512 548 0 546 544 558 559 81 1 553 3445 358 555 558 0 546 560 561 8
2 1 554 -734199379 14 555 1021 553 ?562 548 563 4 564 +0 0 562 548 19 81 1 558 3
305 512 555 0 553 551 565 566 81 1 560 3446 358 562 565 0 553 567 568 82 1 561 -
726793811 14 562 1025 560 ?569 555 570 4 571 -0 0 569 555 19 81 1 565 3306 512 5
62 0 560 558 572 573 81 1 567 3447 358 569 572 0 560 574 575 82 1 568 -727252563
 14 569 1033 567 ?576 562 577 4 578 -0 0 576 562 19 81 1 572 3307 512 569 0 567
 565 579 580 81 1 574 3448 358 576 579 0 567 581 582 82 1 575 -728825427 14 576
 1212 574 ?583 569 584 4 585 +0 0 583 569 19 81 1 579 3308 512 576 0 574 572 586
 587 81 1 581 3449 358 583 586 0 574 588 589 82 1 582 -619249234 14 583 1216 581
 ?590 576 591 4 592 -0 0 590 576 19 81 1 586 3309 512 583 0 581 579 593 594 81 1
 588 3450 358 590 593 0 581 595 596 82 1 589 -619707986 14 590 1220 588 ?597 583
 598 4 599 -0 0 597 583 19 81 1 593 3310 512 590 0 588 586 600 601 81 1 595 3451
 358 597 600 0 588 602 603 82 1 596 -620101202 14 597 1361 595 ?604 590 605 4 60
6 +0 0 604 590 19 81 1 600 3311 512 597 0 595 593 607 608 81 1 602 3452 358 604
 607 0 595 609 610 82 1 603 -613482066 14 604 1365 602 ?611 597 612 4 613 -0 0 6
11 597 19 81 1 607 3312 512 604 0 602 600 614 615 81 1 609 3453 358 611 614 0 60
2 616 617 82 1 610 -613940818 14 611 1369 609 ?230 604 618 4 243 -0 0 230 604 19
 81 1 614 3313 512 611 0 609 607 619 620 81 1 616 3454 358 230 619 0 609 621 622
 82 1 617 -614334034 14 230 1532 616 ?228 611 249 4 225 +0 0 228 611 19 81 1 619
 3314 512 230 0 616 614 623 624 81 1 621 3455 358 228 623 0 616 625 626 82 1 622
 -507182673 14 228 1536 621 ?224 230 257 4 231 -0 0 224 230 19 81 1 623 3315 512
 228 0 621 619 627 628 81 1 625 3456 358 207 629 0 621 630 631 82 1 626 -5076414
25 14 207 1681 625 ?171 224 632 4 203 +0 0 171 224 19 81 1 629 3317 512 207 0 62
5 627 633 634 81 1 630 3457 358 171 633 0 625 0 635 82 1 631 -501415505 14 171 1
685 630 ?180 207 166 4 208 -0 0 180 207 19 81 1 633 3318 512 171 0 630 629 636 6
37 82 1 635 -501874257 80 1 512 0 638 8001 0 0 0 0 3 5 0 0 0 FFFFTFTFFFFFFF2 81
 1 636 3319 512 180 0 205 633 639 640 83 255 3 637 .1098039215686274 .1098039215
686274 .1098039215686274 81 1 205 3415 358 180 636 0 0 227 641 81 1 639 3320 512
 206 0 460 636 642 643 83 3 640 .1098039215686274 .1098039215686274 .10980392156
86274 81 1 460 3431 358 206 639 0 457 461 644 81 1 642 3321 512 454 0 457 639 64
5 646 83 3 643 .1098039215686274 .1098039215686274 .1098039215686274 81 1 457 34
30 358 454 642 0 453 460 647 81 1 645 3322 512 450 0 453 642 648 649 83 3 646 .1
098039215686274 .1098039215686274 .1098039215686274 81 1 453 3429 358 450 645 0
 449 457 650 81 1 648 3323 512 438 0 449 645 651 652 83 3 649 .1098039215686274
 .1098039215686274 .1098039215686274 81 1 449 3428 358 438 648 0 444 453 653 81
 1 651 3324 512 433 0 436 648 435 654 83 3 652 .1098039215686274 .10980392156862
74 .1098039215686274 81 1 436 3426 358 433 651 0 431 444 655 81 1 435 3325 512 4
28 0 431 651 430 656 83 3 654 .1098039215686274 .1098039215686274 .1098039215686
274 81 1 430 3326 512 14 0 427 435 0 657 83 3 656 .1098039215686274 .10980392156
86274 .1098039215686274 83 3 657 .1098039215686274 .1098039215686274 .1098039215
686274 81 1 444 3427 358 443 658 0 436 449 659 82 1 655 -486604367 81 1 658 3287
 512 443 0 444 660 661 662 82 1 659 1934033331 81 1 660 3286 512 372 0 461 663 6
58 664 81 1 661 3288 512 445 0 465 658 665 666 83 3 662 .1098039215686274 .10980
39215686274 .1098039215686274 81 1 465 3433 358 445 661 0 461 470 667 81 1 665 3
289 512 466 0 478 661 668 669 83 3 666 .1098039215686274 .1098039215686274 .1098
039215686274 81 1 478 3436 358 466 665 0 475 481 670 81 1 668 3290 512 472 0 475
 665 513 671 83 3 669 .1098039215686274 .1098039215686274 .1098039215686274 81 1
 475 3435 358 472 668 0 470 478 672 81 1 513 3291 512 468 0 470 668 485 673 83 3
 671 .1098039215686274 .1098039215686274 .1098039215686274 81 1 470 3434 358 468
 513 0 465 475 674 83 3 673 .1098039215686274 .1098039215686274 .109803921568627
4 82 1 674 1933246897 82 1 672 1933443505 82 1 670 1933640113 81 1 461 3432 358
 372 660 0 460 465 675 82 1 667 1933836721 82 1 675 1934229938 81 1 663 3285 512
 367 0 370 369 660 676 83 3 664 .1098039215686274 .1098039215686274 .10980392156
86274 81 1 370 3423 358 367 663 0 366 427 677 81 1 369 3284 512 12 0 366 0 663 6
78 83 3 676 .1098039215686274 .1098039215686274 .1098039215686274 83 3 678 .1098
039215686274 .1098039215686274 .1098039215686274 82 1 677 1934426548 82 1 653 -4
88570447 82 1 650 -490536527 82 1 647 -492502607 82 1 644 -497745488 81 1 227 34
16 358 224 627 0 205 345 679 82 1 641 -502267473 81 1 627 3316 512 224 0 227 623
 629 680 81 1 345 3417 358 341 681 0 227 351 682 82 1 679 -508034641 81 1 681 32
97 512 341 0 345 683 522 684 81 1 351 3418 358 346 522 0 345 355 685 82 1 682 -7
43374419 81 1 522 3298 512 346 0 351 681 517 686 82 1 685 -744947283 83 3 686 .1
098039215686274 .1098039215686274 .1098039215686274 81 1 683 3296 512 347 0 360
 359 681 687 83 3 684 .1098039215686274 .1098039215686274 .1098039215686274 81 1
 360 3420 358 347 683 0 355 363 688 81 1 359 3295 512 354 0 355 689 683 690 83 3
 687 .1098039215686274 .1098039215686274 .1098039215686274 81 1 689 3294 512 356
 0 363 514 359 691 83 3 690 .1098039215686274 .1098039215686274 .109803921568627
4 81 1 363 3421 358 356 689 0 360 366 692 81 1 514 3293 512 364 0 481 485 689 69
3 83 3 691 .1098039215686274 .1098039215686274 .1098039215686274 83 3 693 .10980
39215686274 .1098039215686274 .1098039215686274 82 1 692 940573080 82 1 688 -742
915667 83 3 680 .1098039215686274 .1098039215686274 .1098039215686274 79 255 15
 638 SDL/TYSA_COLOUR83 3 634 .1098039215686274 .1098039215686274 .10980392156862
74 15 632 1684 0 187 207 0 17 187 0 632 182 182 56 185 176 0 174 +17 182 0 632 1
87 187 158 73 183 0 185 -17 174 0 173 185 168 56 163 177 0 0 +17 73 0 179 163 16
0 56 182 183 0 187 +83 3 628 .1098039215686274 .1098039215686274 .10980392156862
74 50 231 1571 0 228 225 613 0 +-.00384083781550504 .0171 .0109 0 0 -1 -1 0 0 50
 613 1403 0 604 231 606 0 +-.00384083781550504 -.0171 .0071 0 0 1 1 0 0 50 606 1
401 0 597 613 243 0 +-.00384083781550504 -.0171 .0059 0 0 1 1 0 0 50 243 1400 0
 611 606 599 694 +0 -.0011 0 0 1 0 0 0 1 50 599 1254 0 590 243 585 695 +0 -.0011
 0 0 1 0 0 0 1 141 694 696 697 697 243 38 696 1290 0 698 699 700 0 +194 243 701
 702 703 141 697 235 694 694 243 16 698 1288 0 ?704 705 706 696 0 0 1 38 699 115
2 0 706 707 696 0 +194 599 708 709 710 31 700 1294 0 705 696 242 0 +-52041704279
3042e-32 1734723475976805e-33 .0071 0 0 1 1 0 0 .00324507744888274 40 3 701 0 1
 3 4480657320194505e-22 .0001371372324866636 ??.002918356607189195 -.0011 .01288
800818413148 .003066563290798595 -.0011 .0065130681824724 .003213956580196675 -.
0011 .0001381093251810894 41 1 702 L.002918356607189195 -.0011 .0128880081841314
8 41 1 703 L.003213956580196675 -.0011 .0001381093251810894 16 705 1292 0 ?711 7
12 698 700 0 0 1 31 242 1298 0 712 700 235 0 +-520417042793042e-32 1734723475976
805e-33 .0059 0 0 1 1 0 0 .003271261542029315 16 712 1296 0 ?713 241 705 242 0 0
 1 17 713 0 605 714 714 77 715 712 0 704 +16 241 1299 0 ?716 234 712 235 0 0 1 1
7 716 0 253 711 715 146 142 241 0 0 +15 253 1285 0 715 12 717 17 711 0 253 704 7
16 143 148 705 0 0 +17 715 0 253 716 704 140 713 712 0 0 -17 142 0 618 79 718 14
0 716 241 0 714 -15 618 1371 0 79 611 0 17 79 0 618 145 142 77 714 259 0 713 +17
 718 0 618 142 145 146 266 264 0 716 -17 714 0 605 713 713 140 79 259 0 715 -15
 605 1364 0 713 597 0 17 145 0 618 718 79 143 704 698 0 266 -17 266 0 612 148 14
8 143 718 264 0 711 +15 612 1368 0 266 604 0 17 148 0 612 266 266 146 711 705 0
 718 -17 704 0 253 715 711 77 145 698 0 0 +15 717 1136 0 719 12 720 17 719 0 717
 721 722 131 723 724 0 0 -15 720 825 0 725 12 726 17 725 0 720 727 728 113 118 7
29 0 0 -15 726 539 0 730 12 731 17 730 0 726 732 733 95 100 734 0 0 -15 731 682
 0 735 12 736 17 735 0 731 737 738 104 109 739 0 0 -15 736 968 0 740 12 0 17 740
 0 736 741 742 122 127 743 0 0 -17 741 0 736 744 740 128 124 745 0 0 +17 742 0 7
36 740 744 125 746 747 0 0 +17 127 0 563 274 274 125 740 743 0 748 +16 743 967 0
 ?127 749 747 750 0 0 1 16 749 1139 0 ?722 751 743 752 0 0 1 16 747 964 0 ?742 7
43 745 753 0 0 1 31 750 969 0 743 753 752 0 +-520417042793042e-32 17347234759768
05e-33 .0046 0 0 -1 -1 0 0 .00329962764293811 38 753 966 0 747 754 750 0 +194 57
1 755 756 757 38 752 1141 0 749 750 758 0 +194 599 759 760 761 31 758 1145 0 751
 752 707 0 +-520417042793042e-32 1734723475976805e-33 .0121 0 0 1 1 0 0 .0031359
7706077199 40 3 759 0 1 3 470399101470343e-21 .000148923692160059 ??.00280652781
1618855 -.0011 .01767186624836935 .002950460904904105 -.0011 .01151030913702072
 .00309354082890233 -.0011 .00534873215773358 41 1 760 L.002806527811618855 -.00
11 .01767186624836935 41 1 761 L.00309354082890233 -.0011 .00534873215773358 16
 751 1143 0 ?762 724 749 758 0 0 1 31 707 1149 0 724 758 699 0 +-520417042793042
e-32 1734723475976805e-33 .0109 0 0 1 1 0 0 .00316216115391857 16 724 1147 0 ?72
3 706 751 707 0 0 1 17 723 0 584 763 763 80 719 724 0 722 +16 706 1150 0 ?721 69
8 724 699 0 0 1 17 721 0 717 762 719 137 133 706 0 0 +17 762 0 717 722 721 134 1
39 751 0 0 +17 133 0 598 82 764 131 721 706 0 763 -15 598 1222 0 82 590 0 17 82
 0 598 136 133 80 763 270 0 723 +17 764 0 598 133 136 137 269 267 0 721 -17 763
 0 584 723 723 131 82 270 0 719 -15 584 1215 0 723 576 0 17 136 0 598 764 82 134
 722 749 0 269 -17 269 0 591 139 139 134 764 267 0 762 +15 591 1219 0 269 583 0
 17 139 0 591 269 269 137 762 751 0 764 -17 722 0 717 719 762 80 136 749 0 0 +38
 754 962 0 745 765 753 0 +194 571 766 767 768 50 571 1064 0 562 564 578 769 +.00
11 -.008 .0034 -1 0 0 0 0 1 40 3 755 0 1 3 4377406796604475e-22 .000131785895448
012 ??.0011 -.003273984398436395 -.002467207422975515 .0011 -.003124423778390765
 .00401444233417074 .0011 -.00297406818086555 .01049607370119728 41 1 756 L.0011
 -.003273984398436395 -.002467207422975515 41 1 757 L.0011 -.00297406818086555 .
01049607370119728 50 564 1065 0 555 592 571 0 +.00578395077144665 -.008 .0046 0
 0 -1 -1 0 0 50 578 1063 0 569 571 543 0 +.00578395077144665 -.008 .0034 0 0 -1
 -1 0 0 141 769 754 770 770 571 141 770 753 769 769 571 50 543 922 0 534 578 550
 0 +.00578395077144665 -.008 .0096 0 0 -1 -1 0 0 50 550 921 0 541 543 557 771 +.
0011 -.008 .0084 -1 0 0 0 0 1 50 557 920 0 548 550 536 0 +.00578395077144665 -.0
08 .0084 0 0 -1 -1 0 0 141 771 772 773 773 550 38 772 819 0 774 775 776 0 +194 5
50 777 778 779 141 773 776 771 771 550 38 776 823 0 780 772 781 0 +194 550 782 7
83 784 16 780 821 0 ?728 729 774 776 0 0 1 31 781 826 0 729 776 765 0 +-52041704
2793042e-32 1734723475976805e-33 .0096 0 0 -1 -1 0 0 .003190527254827365 40 3 78
2 0 1 3 458936462051334e-21 .0001428389552598324 ??.0011 -.00315381101327457 .00
274342256711379 .0011 -.003008578116994715 .00901169050062562 .0011 -.0028625124
55663195 .01527993908668405 41 1 783 L.0011 -.00315381101327457 .002743422567113
79 41 1 784 L.0011 -.002862512455663195 .01527993908668405 16 729 824 0 ?118 785
 780 781 0 0 1 31 765 958 0 785 781 754 0 +-520417042793042e-32 1734723475976805
e-33 .0034 0 0 -1 -1 0 0 .00332581173608469 16 785 956 0 ?744 745 729 765 0 0 1
 17 744 0 736 742 741 83 130 785 0 0 +16 745 960 0 ?741 747 785 754 0 0 1 17 130
 0 577 85 85 128 744 785 0 277 -15 577 1036 0 85 569 0 17 85 0 577 130 130 83 27
7 275 0 746 -17 277 0 570 124 746 128 85 275 0 741 +15 570 1028 0 277 562 0 17 1
24 0 570 748 277 122 741 745 0 274 -17 746 0 570 277 748 83 742 747 0 744 -17 74
8 0 570 746 124 125 274 272 0 742 -17 274 0 563 127 127 122 748 272 0 740 +15 56
3 1024 0 127 555 0 17 118 0 542 280 280 116 725 729 0 786 +15 542 881 0 118 534
 0 17 280 0 542 118 118 113 786 278 0 725 +17 786 0 549 787 115 116 280 278 0 72
8 -15 549 885 0 283 541 0 17 787 0 549 283 786 86 728 780 0 788 -17 115 0 549 78
6 283 113 727 774 0 280 -17 728 0 720 725 788 116 787 780 0 0 +17 788 0 720 728
 727 86 121 789 0 0 +17 727 0 720 788 725 119 115 774 0 0 +17 121 0 556 88 88 11
9 788 789 0 283 -16 789 813 0 ?788 774 739 775 0 0 1 16 774 817 0 ?727 780 789 7
72 0 0 1 16 739 681 0 ?109 789 790 791 0 0 1 31 775 815 0 789 791 772 0 +-520417
042793042e-32 1734723475976805e-33 .0084 0 0 -1 -1 0 0 .003216711347973945 31 79
1 683 0 739 792 775 0 +-520417042793042e-32 1734723475976805e-33 .0084 0 0 1 1 0
 0 .003216711347973945 38 792 680 0 790 793 791 0 +194 529 794 795 796 16 790 67
8 0 ?797 739 798 792 0 0 1 38 793 676 0 798 799 792 0 +194 529 800 801 802 50 52
9 778 0 520 536 349 803 +-.0011 -.008 .0084 -1 0 0 0 0 1 40 3 794 0 1 3 45893646
2050901e-21 .000142838955259829 ??-.0011 -.003153811013274575 .00274342256711379
 -.0011 -.00300857811699472 .00901169050062562 -.0011 -.0028625124556632 .015279
93908668405 41 1 795 L-.0011 -.003153811013274575 .00274342256711379 41 1 796 L-
.0011 -.0028625124556632 .01527993908668405 50 536 779 0 527 557 529 0 +-.005783
95077144665 -.008 .0096 0 0 1 1 0 0 50 349 777 0 352 529 342 0 +-.00578395077144
665 -.008 .0084 0 0 1 1 0 0 141 803 793 804 804 529 141 804 792 803 803 529 16 7
98 674 0 ?106 790 805 793 0 0 1 31 799 672 0 805 337 793 0 +-520417042793042e-32
 1734723475976805e-33 .0096 0 0 1 1 0 0 .003190527254827365 40 3 800 0 1 3 45893
6462050901e-21 .000142838955259829 ??-.0011 .002862512455663205 .015279939086684
05 -.0011 .00300857811699472 .00901169050062563 -.0011 .00315381101327458 .00274
342256711379 41 1 801 L-.0011 .002862512455663205 .01527993908668405 41 1 802 L-
.0011 .00315381101327458 .00274342256711379 16 805 670 0 ?806 798 734 799 0 0 1
 31 337 540 0 734 331 799 0 +-520417042793042e-32 1734723475976805e-33 .0034 0 0
 1 1 0 0 .00332581173608469 16 734 538 0 ?100 805 336 337 0 0 1 17 100 0 362 293
 293 98 730 734 0 807 +16 336 535 0 ?808 734 330 331 0 0 1 17 808 0 348 296 807
 92 733 336 0 329 +15 348 599 0 808 341 0 17 296 0 348 97 808 101 94 288 0 732 +
17 807 0 348 808 97 98 293 291 0 733 -17 733 0 726 730 329 98 808 336 0 0 -17 32
9 0 726 733 732 92 103 318 0 0 +17 732 0 726 329 730 101 97 330 0 0 -17 103 0 35
3 94 94 101 329 318 0 296 -15 353 607 0 94 346 0 17 94 0 353 103 103 92 296 288
 0 808 -17 97 0 348 807 296 95 732 330 0 293 +17 293 0 362 100 100 95 807 291 0
 730 +15 362 595 0 100 347 0 17 806 0 731 738 737 89 112 805 0 0 +17 738 0 731 7
35 806 107 797 790 0 0 -17 737 0 731 806 735 110 106 798 0 0 -17 112 0 535 91 91
 110 806 805 0 287 -15 535 750 0 91 527 0 17 91 0 535 112 112 89 287 285 0 797 -
17 287 0 528 106 797 110 91 285 0 737 +15 528 742 0 797 520 0 17 106 0 528 809 2
87 104 737 798 0 290 +17 797 0 528 287 809 89 738 790 0 806 +17 809 0 528 797 10
6 107 290 284 0 738 -17 290 0 521 109 109 104 809 284 0 735 +15 521 738 0 109 35
2 0 17 109 0 521 290 290 107 735 739 0 809 +15 556 893 0 88 548 0 17 88 0 556 12
1 121 86 283 281 0 787 -17 283 0 549 115 787 119 88 281 0 727 +40 3 777 0 1 3 45
8936462050901e-21 .0001428389552598324 ??.0011 .0028625124556632 .01527993908668
405 .0011 .00300857811699472 .00901169050062562 .0011 .003153811013274575 .00274
342256711379 41 1 778 L.0011 .0028625124556632 .01527993908668405 41 1 779 L.001
1 .003153811013274575 .00274342256711379 50 592 1251 0 583 585 564 0 +-.00384083
781550504 -.0171 .0121 0 0 1 1 0 0 50 585 1253 0 576 599 592 0 +-.00384083781550
504 -.0171 .0109 0 0 1 1 0 0 40 3 766 0 1 3 437740679660014e-21 .000131785895448
005 ??.0011 .00297406818086555 .01049607370119728 .0011 .00312442377839077 .0040
1444233417074 .0011 .0032739843984364 -.002467207422975515 41 1 767 L.0011 .0029
7406818086555 .01049607370119728 41 1 768 L.0011 .0032739843984364 -.00246720742
2975515 40 3 708 0 1 3 470399101470303e-21 .000148923692160059 ??-.0030935408289
0234 -.0011 .00534873215773358 -.002950460904904115 -.0011 .01151030913702072 -.
002806527811618865 -.0011 .01767186624836935 41 1 709 L-.00309354082890234 -.001
1 .00534873215773358 41 1 710 L-.002806527811618865 -.0011 .01767186624836935 14
1 695 752 810 810 599 141 810 699 695 695 599 83 3 624 .1098039215686274 .109803
9215686274 .1098039215686274 83 3 620 .1098039215686274 .1098039215686274 .10980
39215686274 83 3 615 .1098039215686274 .1098039215686274 .1098039215686274 83 3
 608 .1098039215686274 .1098039215686274 .1098039215686274 83 3 601 .10980392156
86274 .1098039215686274 .1098039215686274 83 3 594 .1098039215686274 .1098039215
686274 .1098039215686274 83 3 587 .1098039215686274 .1098039215686274 .109803921
5686274 83 3 580 .1098039215686274 .1098039215686274 .1098039215686274 83 3 573
 .1098039215686274 .1098039215686274 .1098039215686274 83 3 566 .109803921568627
4 .1098039215686274 .1098039215686274 83 3 559 .1098039215686274 .10980392156862
74 .1098039215686274 83 3 552 .1098039215686274 .1098039215686274 .1098039215686
274 83 3 545 .1098039215686274 .1098039215686274 .1098039215686274 83 3 538 .109
8039215686274 .1098039215686274 .1098039215686274 83 3 531 .1098039215686274 .10
98039215686274 .1098039215686274 83 3 524 .1098039215686274 .1098039215686274 .1
098039215686274 82 1 516 1932853681 83 3 515 .1098039215686274 .1098039215686274
 .1098039215686274 79 14 511 SWEntUnchanged15 482 366 0 299 364 509 17 299 0 482
 299 299 0 811 297 0 0 +17 811 0 365 811 811 0 299 297 0 0 -15 365 370 0 811 356
 0 15 462 2171 0 812 372 498 17 812 0 462 812 812 0 418 314 0 0 -17 418 0 813 41
8 418 0 812 314 0 0 +15 813 26 0 418 443 0 15 379 1787 0 378 206 814 15 814 1788
 0 815 206 0 17 815 0 814 815 815 0 190 188 0 0 -17 190 0 357 190 190 0 815 188
 0 0 +15 446 2504 0 422 443 813 17 422 0 446 422 422 0 440 421 0 0 +17 440 0 434
 440 440 0 422 421 0 0 -15 441 2517 0 816 428 0 17 816 0 441 816 816 0 420 416 0
 0 -17 420 0 425 420 420 0 816 416 0 0 +15 425 2498 0 420 367 0 82 1 437 -422379
085 82 1 432 -417005132 82 1 371 -729873996 82 1 361 -20184656 40 3 338 0 1 3 43
774067965958e-20 .000131785895448005 ??-.0011 -.0032739843984364 -.0024672074229
75515 -.0011 -.00312442377839077 .004014442334170735 -.0011 -.00297406818086555
 .01049607370119728 41 1 339 L-.0011 -.0032739843984364 -.002467207422975515 41
 1 340 L-.0011 -.00297406818086555 .01049607370119728 30 184 1731 0 172 0 261 0
 +-.00384083781550504 .0011 .0059 1 0 0 17 151 0 229 76 254 149 221 215 0 250 -1
7 221 0 186 247 251 155 151 215 0 0 +40 3 244 0 1 3 448065732019884e-21 .0001371
372324866636 ??-.003213956580196685 -.0011 .0001381093251810894 -.00306656329079
8605 -.0011 .0065130681824724 -.002918356607189205 -.0011 .01288800818413148 41
 1 245 L-.003213956580196685 -.0011 .0001381093251810894 41 1 246 L-.00291835660
7189205 -.0011 .01288800818413148 141 202 328 817 818 194 141 817 189 819 202 19
4 141 818 331 202 820 194 141 820 793 818 821 194 141 821 792 820 822 194 141 82
2 772 821 823 194 141 823 776 822 824 194 141 824 754 823 825 194 141 825 753 82
4 826 194 141 826 752 825 827 194 141 827 699 826 828 194 141 828 696 827 829 19
4 141 829 235 828 830 194 141 830 232 829 831 194 141 831 211 830 819 194 141 81
9 209 831 817 194 19 13 30 0 1 0 8 4 S74 4 CI16 index_map_offset0 0 1 dCCZ20 11
 2 0 0 630 430 0 0 0 0 0 0 0 0 0 0 0 0 0 0 0 0 0 0 1 0 
